<svg width="1024" height="1024" viewBox="0 0 1024 1024" fill="none" xmlns="http://www.w3.org/2000/svg">
<style>
  :root { --logo: #011640; }
  @media (prefers-color-scheme: dark) {
    :root { --logo: #ffffff; }
  }
</style>
<rect width="1024" height="1024" fill="none"/>
<path d="M662.391 761.023H660.438H658.484H656.531L655.555 760.047L656.531 759.07L657.508 758.094L658.484 757.117L659.461 756.141L660.438 755.164L661.414 754.188L662.391 753.211L663.367 752.234L664.344 751.258L665.32 750.281L666.297 749.305L667.273 748.328L668.25 747.352L669.227 746.375L670.203 745.398L671.18 744.422L672.156 743.445L673.133 742.469L674.109 741.492L675.086 740.516L676.062 739.539H678.016L678.992 738.562L679.969 737.586L680.945 736.609L681.922 735.633L682.898 734.656L683.875 733.68L684.852 732.703L685.828 731.727L686.805 730.75L687.781 729.773L688.758 728.797L689.734 727.82L690.711 726.844L691.688 725.867L692.664 724.891L693.641 723.914L694.617 722.938L695.594 721.961L696.57 720.984V719.031L697.547 718.055H699.5L700.477 717.078V715.125L701.453 714.148L702.43 713.172L703.406 712.195L704.383 711.219L705.359 710.242L706.336 709.266L707.312 708.289L708.289 707.312L709.266 706.336L710.242 705.359L711.219 704.383L712.195 703.406L713.172 702.43L714.148 701.453L715.125 700.477L716.102 699.5L717.078 698.523L718.055 697.547V695.594L719.031 694.617L720.008 693.641L720.984 692.664L721.961 691.688L722.938 690.711L723.914 689.734L724.891 688.758L725.867 687.781L726.844 686.805L727.82 685.828L728.797 684.852L729.773 683.875V681.922L730.75 680.945L731.727 679.969L732.703 678.992L733.68 678.016L734.656 677.039L735.633 676.062L736.609 675.086L737.586 674.109L738.562 673.133L739.539 672.156V670.203L740.516 669.227L741.492 668.25L742.469 667.273L743.445 666.297L744.422 665.32L745.398 664.344L746.375 663.367L747.352 662.391V660.438L748.328 659.461L749.305 658.484L750.281 657.508L751.258 656.531L752.234 655.555L753.211 654.578V652.625L754.188 651.648L755.164 650.672L756.141 649.695L757.117 648.719V646.766L758.094 645.789L759.07 644.812L760.047 643.836L761.023 642.859L762 641.883L762.977 640.906V638.953L763.953 637.977L764.93 637L765.906 636.023L766.883 635.047V633.094L767.859 632.117L768.836 631.141L769.812 630.164L770.789 629.188V627.234L771.766 626.258L772.742 625.281V623.328L773.719 622.352L774.695 621.375L775.672 620.398L776.648 619.422V617.469L777.625 616.492L778.602 615.516L779.578 614.539L780.555 613.562V611.609L781.531 610.633L782.508 609.656V607.703L783.484 606.727L784.461 605.75L785.438 604.773L786.414 603.797V601.844L787.391 600.867L788.367 599.891V597.938L789.344 596.961L790.32 595.984V594.031L791.297 593.055L792.273 592.078V590.125L793.25 589.148L794.227 588.172V586.219L795.203 585.242L796.18 584.266L797.156 583.289L798.133 582.312V580.359L799.109 579.383L800.086 578.406V576.453L801.062 575.477L802.039 574.5V572.547V570.594L803.016 569.617L803.992 568.641V566.688L804.969 565.711L805.945 564.734V562.781L806.922 561.805L807.898 560.828V558.875L808.875 557.898L809.852 556.922V554.969V553.016L810.828 552.039L811.805 551.062V549.109L812.781 548.133L813.758 547.156V545.203L814.734 544.227L815.711 543.25V541.297V539.344L816.688 538.367L817.664 537.391V535.438L818.641 534.461L819.617 533.484V531.531V529.578L820.594 528.602L821.57 527.625V525.672V523.719L822.547 522.742L823.523 521.766V519.812L824.5 518.836L825.477 517.859V515.906V513.953V512L826.453 511.023L827.43 510.047V508.094V506.141L828.406 505.164L829.383 504.188V502.234V500.281L830.359 499.305L831.336 498.328V496.375V494.422V492.469L832.312 491.492L833.289 490.516V488.562V486.609L834.266 485.633L835.242 484.656V482.703V480.75V478.797L836.219 477.82L837.195 476.844V474.891V472.938V470.984L838.172 470.008L839.148 469.031V467.078V465.125V463.172V461.219L840.125 460.242L841.102 459.266V457.312V455.359V453.406V451.453L842.078 450.477L843.055 449.5V447.547V445.594V443.641V441.688L844.031 440.711L845.008 439.734V437.781V435.828V433.875V431.922V429.969L845.984 428.992L846.961 428.016V426.062V424.109V422.156V420.203V418.25V416.297L847.938 415.32L848.914 414.344V412.391V410.438V408.484V406.531V404.578V402.625V400.672L849.891 399.695L850.867 398.719V396.766V394.812V392.859V390.906V388.953V387V385.047V383.094V381.141V379.188V377.234L851.844 376.258L852.82 375.281V373.328V371.375V369.422V367.469V365.516V363.562V361.609V359.656V357.703V355.75V353.797V351.844V349.891V347.938V345.984V344.031V342.078V340.125V338.172V336.219V334.266V332.312V330.359V328.406V326.453V324.5V322.547V320.594V318.641V316.688V314.734V312.781V310.828V308.875V306.922V304.969V303.016V301.062V299.109V297.156V295.203V293.25V291.297V289.344V287.391V285.438V283.484V281.531V279.578V277.625V275.672V273.719V271.766V269.812V267.859V265.906V263.953V262V260.047V258.094V256.141V254.188V252.234V250.281V248.328V246.375V244.422V242.469V240.516V238.562V236.609V234.656V232.703V230.75V228.797V226.844V224.891V222.938V220.984V219.031V217.078V215.125V213.172V211.219V209.266V207.312V205.359V203.406V201.453L851.844 200.477H849.891H847.938H845.984H844.031H842.078H840.125H838.172L837.195 199.5L836.219 198.523H834.266H832.312H830.359H828.406H826.453H824.5L823.523 197.547L822.547 196.57H820.594H818.641H816.688H814.734H812.781H810.828H808.875L807.898 195.594L806.922 194.617H804.969H803.016H801.062H799.109H797.156L796.18 193.641L795.203 192.664H793.25H791.297H789.344H787.391H785.438L784.461 191.688L783.484 190.711H781.531H779.578H777.625H775.672L774.695 189.734L773.719 188.758H771.766H769.812H767.859H765.906L764.93 187.781L763.953 186.805H762H760.047H758.094H756.141L755.164 185.828L754.188 184.852H752.234H750.281H748.328L747.352 183.875L746.375 182.898H744.422H742.469H740.516L739.539 181.922L738.562 180.945H736.609H734.656H732.703L731.727 179.969L730.75 178.992H728.797H726.844H724.891L723.914 178.016L722.938 177.039H720.984H719.031H717.078L716.102 176.062L715.125 175.086H713.172H711.219L710.242 174.109L709.266 173.133H707.312H705.359H703.406L702.43 172.156L701.453 171.18H699.5H697.547L696.57 170.203L695.594 169.227H693.641H691.688L690.711 168.25L689.734 167.273H687.781H685.828L684.852 166.297L683.875 165.32H681.922H679.969L678.992 164.344L678.016 163.367H676.062H674.109L673.133 162.391L672.156 161.414H670.203H668.25L667.273 160.438L666.297 159.461H664.344L663.367 158.484L662.391 157.508H660.438H658.484L657.508 156.531L656.531 155.555H654.578H652.625L651.648 154.578L650.672 153.602H648.719L647.742 152.625L646.766 151.648H644.812H642.859L641.883 150.672L640.906 149.695H638.953L637.977 148.719L637 147.742H635.047H633.094L632.117 146.766L631.141 145.789H629.188L628.211 144.812L627.234 143.836H625.281L624.305 142.859L623.328 141.883H621.375H619.422L618.445 140.906L617.469 139.93H615.516L614.539 138.953L613.562 137.977H611.609L610.633 137L609.656 136.023H607.703L606.727 135.047L605.75 134.07H603.797L602.82 133.094L601.844 132.117H599.891L598.914 131.141L597.938 130.164H595.984L595.008 129.188L594.031 128.211H592.078L591.102 127.234L590.125 126.258H588.172L587.195 125.281L586.219 124.305H584.266L583.289 123.328L582.312 122.352H580.359L579.383 121.375L578.406 120.398H576.453L575.477 119.422L574.5 118.445L573.523 117.469L572.547 116.492H570.594L569.617 115.516L568.641 114.539H566.688L565.711 113.562L564.734 112.586H562.781L561.805 111.609L560.828 110.633L559.852 109.656L558.875 108.68H556.922L555.945 107.703L554.969 106.727H553.016L552.039 105.75L551.062 104.773L550.086 103.797L549.109 102.82H547.156L546.18 101.844L545.203 100.867L544.227 99.8906L543.25 98.9141H541.297L540.32 97.9375L539.344 96.9609L538.367 95.9844L537.391 95.0078H535.438L534.461 94.0312L533.484 93.0547L532.508 92.0781L531.531 91.1016H529.578L528.602 90.125L527.625 89.1484L526.648 88.1719L525.672 87.1953H523.719L522.742 86.2188L521.766 85.2422L520.789 84.2656L519.812 83.2891H517.859L516.883 82.3125L515.906 81.3359L514.93 80.3594L513.953 79.3828L512.977 78.4062L512 77.4297H510.047L509.07 76.4531L508.094 75.4766L507.117 74.5L506.141 73.5234L505.164 74.5L504.188 75.4766L503.211 76.4531L502.234 77.4297L501.258 78.4062L500.281 79.3828H498.328L497.352 80.3594L496.375 81.3359L495.398 82.3125L494.422 83.2891H492.469L491.492 84.2656L490.516 85.2422L489.539 86.2188L488.562 87.1953L487.586 88.1719L486.609 89.1484H484.656L483.68 90.125L482.703 91.1016L481.727 92.0781L480.75 93.0547H478.797L477.82 94.0312L476.844 95.0078L475.867 95.9844L474.891 96.9609H472.938L471.961 97.9375L470.984 98.9141L470.008 99.8906L469.031 100.867H467.078L466.102 101.844L465.125 102.82L464.148 103.797L463.172 104.773H461.219L460.242 105.75L459.266 106.727H457.312L456.336 107.703L455.359 108.68L454.383 109.656L453.406 110.633H451.453L450.477 111.609L449.5 112.586H447.547L446.57 113.562L445.594 114.539L444.617 115.516L443.641 116.492H441.688L440.711 117.469L439.734 118.445H437.781L436.805 119.422L435.828 120.398H433.875L432.898 121.375L431.922 122.352H429.969L428.992 123.328L428.016 124.305H426.062L425.086 125.281L424.109 126.258H422.156L421.18 127.234L420.203 128.211H418.25L417.273 129.188L416.297 130.164H414.344L413.367 131.141L412.391 132.117H410.438L409.461 133.094L408.484 134.07H406.531L405.555 135.047L404.578 136.023H402.625L401.648 137L400.672 137.977H398.719L397.742 138.953L396.766 139.93H394.812L393.836 140.906L392.859 141.883H390.906L389.93 142.859L388.953 143.836H387H385.047L384.07 144.812L383.094 145.789H381.141L380.164 146.766L379.188 147.742H377.234L376.258 148.719L375.281 149.695H373.328H371.375L370.398 150.672L369.422 151.648H367.469L366.492 152.625L365.516 153.602H363.562H361.609L360.633 154.578L359.656 155.555H357.703L356.727 156.531L355.75 157.508H353.797H351.844L350.867 158.484L349.891 159.461H347.938H345.984L345.008 160.438L344.031 161.414H342.078H340.125L339.148 162.391L338.172 163.367H336.219H334.266L333.289 164.344L332.312 165.32H330.359H328.406L327.43 166.297L326.453 167.273H324.5L323.523 168.25L322.547 169.227H320.594H318.641H316.688L315.711 170.203L314.734 171.18H312.781H310.828L309.852 172.156L308.875 173.133H306.922H304.969H303.016L302.039 174.109L301.062 175.086H299.109H297.156L296.18 176.062L295.203 177.039H293.25H291.297L290.32 178.016L289.344 178.992H287.391H285.438H283.484L282.508 179.969L281.531 180.945H279.578H277.625H275.672L274.695 181.922L273.719 182.898H271.766H269.812H267.859L266.883 183.875L265.906 184.852H263.953H262H260.047H258.094L257.117 185.828L256.141 186.805H254.188H252.234H250.281L249.305 187.781L248.328 188.758H246.375H244.422H242.469H240.516L239.539 189.734L238.562 190.711H236.609H234.656H232.703H230.75H228.797L227.82 191.688L226.844 192.664H224.891H222.938H220.984H219.031H217.078L216.102 193.641L215.125 194.617H213.172H211.219H209.266H207.312H205.359L204.383 195.594L203.406 196.57H201.453H199.5H197.547H195.594H193.641H191.688L190.711 197.547L189.734 198.523H187.781H185.828H183.875H181.922H179.969H178.016H176.062L175.086 199.5L174.109 200.477H172.156H170.203H168.25H166.297H164.344H162.391H160.438L159.461 201.453V203.406V205.359V207.312V209.266V211.219V213.172V215.125V217.078V219.031V220.984V222.938V224.891V226.844V228.797V230.75V232.703V234.656V236.609V238.562V240.516V242.469V244.422V246.375V248.328V250.281V252.234V254.188V256.141V258.094V260.047V262V263.953V265.906V267.859V269.812V271.766V273.719V275.672V277.625V279.578V281.531V283.484V285.438V287.391V289.344V291.297V293.25V295.203V297.156V299.109V301.062V303.016V304.969V306.922V308.875V310.828V312.781V314.734V316.688V318.641V320.594V322.547V324.5V326.453V328.406V330.359V332.312V334.266V336.219V338.172V340.125V342.078V344.031V345.984V347.938V349.891V351.844V353.797V355.75V357.703V359.656V361.609V363.562V365.516L160.438 366.492L161.414 367.469V369.422V371.375V373.328V375.281V377.234V379.188V381.141V383.094V385.047V387V388.953L162.391 389.93L163.367 390.906V392.859V394.812V396.766V398.719V400.672V402.625V404.578V406.531L164.344 407.508L165.32 408.484V410.438V412.391V414.344V416.297V418.25V420.203L166.297 421.18L167.273 422.156V424.109V426.062V428.016V429.969V431.922V433.875L168.25 434.852L169.227 435.828V437.781V439.734V441.688V443.641L170.203 444.617L171.18 445.594V447.547V449.5V451.453V453.406V455.359L172.156 456.336L173.133 457.312V459.266V461.219V463.172L174.109 464.148L175.086 465.125V467.078V469.031V470.984V472.938L176.062 473.914L177.039 474.891V476.844V478.797V480.75L178.016 481.727L178.992 482.703V484.656V486.609L179.969 487.586L180.945 488.562V490.516V492.469V494.422L181.922 495.398L182.898 496.375V498.328V500.281L183.875 501.258L184.852 502.234V504.188V506.141L185.828 507.117L186.805 508.094V510.047V512V513.953L187.781 514.93L188.758 515.906V517.859V519.812L189.734 520.789L190.711 521.766V523.719L191.688 524.695L192.664 525.672V527.625V529.578L193.641 530.555L194.617 531.531V533.484V535.438L195.594 536.414L196.57 537.391V539.344L197.547 540.32L198.523 541.297V543.25V545.203L199.5 546.18L200.477 547.156V549.109L201.453 550.086L202.43 551.062V553.016L203.406 553.992L204.383 554.969V556.922V558.875L205.359 559.852L206.336 560.828V562.781L207.312 563.758L208.289 564.734V566.688L209.266 567.664L210.242 568.641V570.594L211.219 571.57L212.195 572.547V574.5L213.172 575.477L214.148 576.453V578.406L215.125 579.383L216.102 580.359V582.312L217.078 583.289L218.055 584.266V586.219L219.031 587.195L220.008 588.172V590.125L220.984 591.102L221.961 592.078V594.031L222.938 595.008L223.914 595.984V597.938L224.891 598.914L225.867 599.891V601.844L226.844 602.82L227.82 603.797L228.797 604.773L229.773 605.75V607.703L230.75 608.68L231.727 609.656V611.609L232.703 612.586L233.68 613.562V615.516L234.656 616.492L235.633 617.469L236.609 618.445L237.586 619.422V621.375L238.562 622.352L239.539 623.328L240.516 624.305L241.492 625.281V627.234L242.469 628.211L243.445 629.188V631.141L244.422 632.117L245.398 633.094L246.375 634.07L247.352 635.047V637L248.328 637.977L249.305 638.953L250.281 639.93L251.258 640.906V642.859L252.234 643.836L253.211 644.812L254.188 645.789L255.164 646.766L256.141 647.742L257.117 648.719V650.672L258.094 651.648L259.07 652.625L260.047 653.602L261.023 654.578V656.531L262 657.508L262.977 658.484L263.953 659.461L264.93 660.438L265.906 661.414L266.883 662.391V664.344L267.859 665.32L268.836 666.297L269.812 667.273L270.789 668.25L271.766 669.227L272.742 670.203L273.719 671.18L274.695 672.156V674.109L275.672 675.086L276.648 676.062L277.625 677.039L278.602 678.016L279.578 678.992L280.555 679.969L281.531 680.945L282.508 681.922V683.875L283.484 684.852L284.461 685.828L285.438 686.805L286.414 687.781L287.391 688.758L288.367 689.734L289.344 690.711L290.32 691.688L291.297 692.664L292.273 693.641L293.25 694.617L294.227 695.594L295.203 696.57L296.18 697.547V699.5L297.156 700.477L298.133 701.453L299.109 702.43L300.086 703.406L301.062 704.383L302.039 705.359L303.016 706.336L303.992 707.312L304.969 708.289L305.945 709.266L306.922 710.242L307.898 711.219L308.875 712.195L309.852 713.172L310.828 714.148L311.805 715.125L312.781 716.102L313.758 717.078L314.734 718.055L315.711 719.031L316.688 720.008L317.664 720.984L318.641 721.961L319.617 722.938L320.594 723.914L321.57 724.891L322.547 725.867L323.523 726.844L324.5 727.82L325.477 728.797L326.453 729.773L327.43 730.75L328.406 731.727L329.383 732.703L330.359 733.68L331.336 734.656L332.312 735.633L333.289 736.609L334.266 737.586L335.242 738.562L336.219 739.539L337.195 740.516L338.172 741.492L339.148 742.469V744.422L338.172 745.398H336.219L335.242 746.375L334.266 747.352H332.312L331.336 748.328L330.359 749.305H328.406H326.453L325.477 750.281L324.5 751.258H322.547H320.594H318.641L317.664 752.234L316.688 753.211H314.734L313.758 754.188L312.781 755.164H310.828H308.875H306.922H304.969L303.992 754.188L303.016 753.211L302.039 752.234L301.062 751.258L300.086 750.281L299.109 749.305L298.133 748.328L297.156 747.352L296.18 746.375L295.203 745.398L294.227 744.422L293.25 743.445L292.273 742.469L291.297 741.492L290.32 740.516L289.344 739.539L288.367 738.562L287.391 737.586L286.414 736.609L285.438 735.633L284.461 734.656L283.484 733.68L282.508 732.703L281.531 731.727L280.555 730.75L279.578 729.773L278.602 728.797L277.625 727.82L276.648 726.844L275.672 725.867L274.695 724.891V722.938L273.719 721.961L272.742 720.984L271.766 720.008L270.789 719.031L269.812 718.055L268.836 717.078L267.859 716.102L266.883 715.125L265.906 714.148L264.93 713.172L263.953 712.195L262.977 711.219L262 710.242L261.023 709.266L260.047 708.289L259.07 707.312V705.359L258.094 704.383L257.117 703.406L256.141 702.43L255.164 701.453L254.188 700.477L253.211 699.5L252.234 698.523L251.258 697.547V695.594L250.281 694.617L249.305 693.641L248.328 692.664L247.352 691.688L246.375 690.711L245.398 689.734L244.422 688.758L243.445 687.781V685.828L242.469 684.852L241.492 683.875L240.516 682.898L239.539 681.922L238.562 680.945L237.586 679.969V678.016L236.609 677.039L235.633 676.062L234.656 675.086L233.68 674.109L232.703 673.133L231.727 672.156V670.203L230.75 669.227L229.773 668.25L228.797 667.273L227.82 666.297V664.344L226.844 663.367L225.867 662.391L224.891 661.414L223.914 660.438V658.484L222.938 657.508L221.961 656.531L220.984 655.555L220.008 654.578V652.625L219.031 651.648L218.055 650.672L217.078 649.695L216.102 648.719V646.766L215.125 645.789L214.148 644.812L213.172 643.836L212.195 642.859V640.906L211.219 639.93L210.242 638.953L209.266 637.977L208.289 637V635.047L207.312 634.07L206.336 633.094V631.141L205.359 630.164L204.383 629.188L203.406 628.211L202.43 627.234V625.281L201.453 624.305L200.477 623.328V621.375L199.5 620.398L198.523 619.422V617.469L197.547 616.492L196.57 615.516L195.594 614.539L194.617 613.562V611.609L193.641 610.633L192.664 609.656V607.703L191.688 606.727L190.711 605.75V603.797L189.734 602.82L188.758 601.844V599.891L187.781 598.914L186.805 597.938V595.984L185.828 595.008L184.852 594.031V592.078L183.875 591.102L182.898 590.125V588.172L181.922 587.195L180.945 586.219V584.266L179.969 583.289L178.992 582.312V580.359L178.016 579.383L177.039 578.406V576.453L176.062 575.477L175.086 574.5V572.547V570.594L174.109 569.617L173.133 568.641V566.688L172.156 565.711L171.18 564.734V562.781L170.203 561.805L169.227 560.828V558.875V556.922L168.25 555.945L167.273 554.969V553.016L166.297 552.039L165.32 551.062V549.109V547.156L164.344 546.18L163.367 545.203V543.25L162.391 542.273L161.414 541.297V539.344V537.391L160.438 536.414L159.461 535.438V533.484V531.531L158.484 530.555L157.508 529.578V527.625V525.672L156.531 524.695L155.555 523.719V521.766V519.812L154.578 518.836L153.602 517.859V515.906V513.953L152.625 512.977L151.648 512V510.047V508.094L150.672 507.117L149.695 506.141V504.188V502.234V500.281L148.719 499.305L147.742 498.328V496.375V494.422L146.766 493.445L145.789 492.469V490.516V488.562V486.609L144.812 485.633L143.836 484.656V482.703V480.75V478.797L142.859 477.82L141.883 476.844V474.891V472.938V470.984V469.031L140.906 468.055L139.93 467.078V465.125V463.172V461.219V459.266L138.953 458.289L137.977 457.312V455.359V453.406V451.453V449.5L137 448.523L136.023 447.547V445.594V443.641V441.688V439.734V437.781L135.047 436.805L134.07 435.828V433.875V431.922V429.969V428.016V426.062L133.094 425.086L132.117 424.109V422.156V420.203V418.25V416.297V414.344V412.391V410.438L131.141 409.461L130.164 408.484V406.531V404.578V402.625V400.672V398.719V396.766V394.812V392.859V390.906V388.953L129.188 387.977L128.211 387V385.047V383.094V381.141V379.188V377.234V375.281V373.328V371.375V369.422V367.469V365.516V363.562V361.609V359.656V357.703L127.234 356.727L126.258 355.75V353.797V351.844V349.891V347.938V345.984V344.031V342.078V340.125V338.172V336.219V334.266V332.312V330.359V328.406V326.453V324.5V322.547V320.594V318.641V316.688V314.734V312.781V310.828V308.875V306.922V304.969V303.016V301.062V299.109V297.156V295.203V293.25V291.297V289.344V287.391V285.438V283.484V281.531V279.578V277.625V275.672V273.719V271.766V269.812V267.859V265.906V263.953V262V260.047V258.094V256.141V254.188V252.234V250.281V248.328V246.375V244.422V242.469V240.516V238.562V236.609V234.656V232.703V230.75V228.797V226.844V224.891V222.938V220.984V219.031V217.078V215.125V213.172V211.219V209.266V207.312V205.359V203.406V201.453V199.5V197.547V195.594V193.641V191.688V189.734V187.781V185.828V183.875L127.234 182.898L128.211 181.922V179.969L129.188 178.992L130.164 178.016V176.062L131.141 175.086L132.117 174.109L133.094 173.133L134.07 172.156L135.047 171.18H137L137.977 170.203L138.953 169.227H140.906H142.859H144.812H146.766H148.719H150.672H152.625L153.602 168.25L154.578 167.273H156.531H158.484H160.438H162.391H164.344H166.297H168.25H170.203H172.156H174.109L175.086 166.297L176.062 165.32H178.016H179.969H181.922H183.875H185.828H187.781H189.734L190.711 164.344L191.688 163.367H193.641H195.594H197.547H199.5H201.453L202.43 162.391L203.406 161.414H205.359H207.312H209.266H211.219H213.172L214.148 160.438L215.125 159.461H217.078H219.031H220.984H222.938H224.891L225.867 158.484L226.844 157.508H228.797H230.75H232.703H234.656H236.609L237.586 156.531L238.562 155.555H240.516H242.469H244.422L245.398 154.578L246.375 153.602H248.328H250.281H252.234L253.211 152.625L254.188 151.648H256.141H258.094H260.047H262L262.977 150.672L263.953 149.695H265.906H267.859H269.812L270.789 148.719L271.766 147.742H273.719H275.672H277.625L278.602 146.766L279.578 145.789H281.531H283.484L284.461 144.812L285.438 143.836H287.391H289.344H291.297L292.273 142.859L293.25 141.883H295.203H297.156L298.133 140.906L299.109 139.93H301.062H303.016H304.969L305.945 138.953L306.922 137.977H308.875H310.828L311.805 137L312.781 136.023H314.734H316.688L317.664 135.047L318.641 134.07H320.594H322.547L323.523 133.094L324.5 132.117H326.453H328.406L329.383 131.141L330.359 130.164H332.312H334.266L335.242 129.188L336.219 128.211H338.172L339.148 127.234L340.125 126.258H342.078H344.031L345.008 125.281L345.984 124.305H347.938L348.914 123.328L349.891 122.352H351.844H353.797L354.773 121.375L355.75 120.398H357.703L358.68 119.422L359.656 118.445H361.609H363.562L364.539 117.469L365.516 116.492H367.469L368.445 115.516L369.422 114.539H371.375L372.352 113.562L373.328 112.586H375.281H377.234L378.211 111.609L379.188 110.633H381.141L382.117 109.656L383.094 108.68H385.047L386.023 107.703L387 106.727H388.953L389.93 105.75L390.906 104.773H392.859H394.812L395.789 103.797L396.766 102.82L397.742 101.844L398.719 100.867H400.672H402.625L403.602 99.8906L404.578 98.9141L405.555 97.9375L406.531 96.9609H408.484L409.461 95.9844L410.438 95.0078H412.391L413.367 94.0312L414.344 93.0547H416.297L417.273 92.0781L418.25 91.1016H420.203L421.18 90.125L422.156 89.1484H424.109L425.086 88.1719L426.062 87.1953L427.039 86.2188L428.016 85.2422H429.969L430.945 84.2656L431.922 83.2891H433.875L434.852 82.3125L435.828 81.3359H437.781L438.758 80.3594L439.734 79.3828L440.711 78.4062L441.688 77.4297H443.641L444.617 76.4531L445.594 75.4766H447.547L448.523 74.5L449.5 73.5234L450.477 72.5469L451.453 71.5703H453.406L454.383 70.5938L455.359 69.6172L456.336 68.6406L457.312 67.6641H459.266L460.242 66.6875L461.219 65.7109L462.195 64.7344L463.172 63.7578H465.125L466.102 62.7812L467.078 61.8047L468.055 60.8281L469.031 59.8516H470.984L471.961 58.875L472.938 57.8984L473.914 56.9219L474.891 55.9453L475.867 54.9688L476.844 53.9922H478.797L479.773 53.0156L480.75 52.0391L481.727 51.0625L482.703 50.0859L483.68 49.1094L484.656 48.1328H486.609L487.586 47.1562L488.562 46.1797L489.539 45.2031L490.516 44.2266L491.492 43.25L492.469 42.2734L493.445 41.2969L494.422 40.3203H496.375L497.352 39.3438L498.328 38.3672H500.281L501.258 37.3906L502.234 36.4141H504.188H506.141H508.094H510.047H512L512.977 37.3906L513.953 38.3672H515.906L516.883 39.3438L517.859 40.3203L518.836 41.2969L519.812 42.2734L520.789 43.25L521.766 44.2266L522.742 45.2031L523.719 46.1797H525.672L526.648 47.1562L527.625 48.1328L528.602 49.1094L529.578 50.0859L530.555 51.0625L531.531 52.0391L532.508 53.0156L533.484 53.9922H535.438L536.414 54.9688L537.391 55.9453L538.367 56.9219L539.344 57.8984H541.297L542.273 58.875L543.25 59.8516L544.227 60.8281L545.203 61.8047L546.18 62.7812L547.156 63.7578H549.109L550.086 64.7344L551.062 65.7109L552.039 66.6875L553.016 67.6641H554.969L555.945 68.6406L556.922 69.6172H558.875L559.852 70.5938L560.828 71.5703L561.805 72.5469L562.781 73.5234H564.734L565.711 74.5L566.688 75.4766L567.664 76.4531L568.641 77.4297H570.594L571.57 78.4062L572.547 79.3828H574.5L575.477 80.3594L576.453 81.3359L577.43 82.3125L578.406 83.2891H580.359L581.336 84.2656L582.312 85.2422H584.266L585.242 86.2188L586.219 87.1953H588.172L589.148 88.1719L590.125 89.1484H592.078L593.055 90.125L594.031 91.1016L595.008 92.0781L595.984 93.0547H597.938L598.914 94.0312L599.891 95.0078H601.844L602.82 95.9844L603.797 96.9609H605.75L606.727 97.9375L607.703 98.9141H609.656L610.633 99.8906L611.609 100.867H613.562L614.539 101.844L615.516 102.82H617.469L618.445 103.797L619.422 104.773H621.375L622.352 105.75L623.328 106.727H625.281L626.258 107.703L627.234 108.68H629.188L630.164 109.656L631.141 110.633H633.094L634.07 111.609L635.047 112.586H637H638.953L639.93 113.562L640.906 114.539H642.859L643.836 115.516L644.812 116.492H646.766H648.719L649.695 117.469L650.672 118.445H652.625L653.602 119.422L654.578 120.398H656.531L657.508 121.375L658.484 122.352H660.438H662.391L663.367 123.328L664.344 124.305H666.297H668.25L669.227 125.281L670.203 126.258H672.156L673.133 127.234L674.109 128.211H676.062H678.016L678.992 129.188L679.969 130.164H681.922H683.875L684.852 131.141L685.828 132.117H687.781H689.734L690.711 133.094L691.688 134.07H693.641H695.594L696.57 135.047L697.547 136.023H699.5H701.453L702.43 137L703.406 137.977H705.359H707.312L708.289 138.953L709.266 139.93H711.219H713.172L714.148 140.906L715.125 141.883H717.078H719.031L720.008 142.859L720.984 143.836H722.938H724.891H726.844L727.82 144.812L728.797 145.789H730.75H732.703H734.656L735.633 146.766L736.609 147.742H738.562H740.516L741.492 148.719L742.469 149.695H744.422H746.375H748.328L749.305 150.672L750.281 151.648H752.234H754.188H756.141H758.094L759.07 152.625L760.047 153.602H762H763.953H765.906L766.883 154.578L767.859 155.555H769.812H771.766H773.719H775.672L776.648 156.531L777.625 157.508H779.578H781.531H783.484H785.438L786.414 158.484L787.391 159.461H789.344H791.297H793.25H795.203H797.156L798.133 160.438L799.109 161.414H801.062H803.016H804.969H806.922H808.875L809.852 162.391L810.828 163.367H812.781H814.734H816.688H818.641H820.594H822.547L823.523 164.344L824.5 165.32H826.453H828.406H830.359H832.312H834.266H836.219H838.172L839.148 166.297L840.125 167.273H842.078H844.031H845.984H847.938H849.891H851.844H853.797H855.75H857.703H859.656L860.633 168.25L861.609 169.227H863.562H865.516H867.469H869.422H871.375H873.328L874.305 170.203L875.281 171.18H877.234L878.211 172.156L879.188 173.133L880.164 174.109L881.141 175.086L882.117 176.062L883.094 177.039L884.07 178.016V179.969L885.047 180.945L886.023 181.922V183.875V185.828V187.781V189.734V191.688V193.641V195.594V197.547V199.5V201.453V203.406V205.359V207.312V209.266V211.219V213.172V215.125V217.078V219.031V220.984V222.938V224.891V226.844V228.797V230.75V232.703V234.656V236.609V238.562V240.516V242.469V244.422V246.375V248.328V250.281V252.234V254.188V256.141V258.094V260.047V262V263.953V265.906V267.859V269.812V271.766V273.719V275.672V277.625V279.578V281.531V283.484V285.438V287.391V289.344V291.297V293.25V295.203V297.156V299.109V301.062V303.016V304.969V306.922V308.875V310.828V312.781V314.734V316.688V318.641V320.594V322.547V324.5V326.453V328.406V330.359V332.312V334.266V336.219V338.172V340.125V342.078V344.031V345.984V347.938V349.891V351.844V353.797V355.75V357.703V359.656V361.609V363.562V365.516V367.469V369.422V371.375V373.328L885.047 374.305L884.07 375.281V377.234V379.188V381.141V383.094V385.047V387V388.953V390.906V392.859V394.812V396.766V398.719L883.094 399.695L882.117 400.672V402.625V404.578V406.531V408.484V410.438V412.391V414.344L881.141 415.32L880.164 416.297V418.25V420.203V422.156V424.109V426.062V428.016L879.188 428.992L878.211 429.969V431.922V433.875V435.828V437.781V439.734V441.688L877.234 442.664L876.258 443.641V445.594V447.547V449.5V451.453L875.281 452.43L874.305 453.406V455.359V457.312V459.266V461.219V463.172L873.328 464.148L872.352 465.125V467.078V469.031V470.984L871.375 471.961L870.398 472.938V474.891V476.844V478.797V480.75L869.422 481.727L868.445 482.703V484.656V486.609V488.562L867.469 489.539L866.492 490.516V492.469V494.422V496.375L865.516 497.352L864.539 498.328V500.281V502.234L863.562 503.211L862.586 504.188V506.141V508.094L861.609 509.07L860.633 510.047V512V513.953L859.656 514.93L858.68 515.906V517.859V519.812V521.766L857.703 522.742L856.727 523.719V525.672V527.625L855.75 528.602L854.773 529.578V531.531L853.797 532.508L852.82 533.484V535.438V537.391L851.844 538.367L850.867 539.344V541.297V543.25L849.891 544.227L848.914 545.203V547.156L847.938 548.133L846.961 549.109V551.062V553.016L845.984 553.992L845.008 554.969V556.922L844.031 557.898L843.055 558.875V560.828V562.781L842.078 563.758L841.102 564.734V566.688L840.125 567.664L839.148 568.641V570.594L838.172 571.57L837.195 572.547V574.5V576.453L836.219 577.43L835.242 578.406V580.359L834.266 581.336L833.289 582.312V584.266L832.312 585.242L831.336 586.219V588.172L830.359 589.148L829.383 590.125V592.078L828.406 593.055L827.43 594.031V595.984L826.453 596.961L825.477 597.938V599.891L824.5 600.867L823.523 601.844V603.797L822.547 604.773L821.57 605.75V607.703L820.594 608.68L819.617 609.656V611.609L818.641 612.586L817.664 613.562V615.516L816.688 616.492L815.711 617.469L814.734 618.445L813.758 619.422V621.375L812.781 622.352L811.805 623.328V625.281L810.828 626.258L809.852 627.234L808.875 628.211L807.898 629.188V631.141L806.922 632.117L805.945 633.094V635.047L804.969 636.023L803.992 637L803.016 637.977L802.039 638.953V640.906L801.062 641.883L800.086 642.859L799.109 643.836L798.133 644.812V646.766L797.156 647.742L796.18 648.719V650.672L795.203 651.648L794.227 652.625L793.25 653.602L792.273 654.578L791.297 655.555L790.32 656.531V658.484L789.344 659.461L788.367 660.438L787.391 661.414L786.414 662.391V664.344L785.438 665.32L784.461 666.297L783.484 667.273L782.508 668.25V670.203L781.531 671.18L780.555 672.156L779.578 673.133L778.602 674.109L777.625 675.086L776.648 676.062V678.016L775.672 678.992L774.695 679.969L773.719 680.945L772.742 681.922L771.766 682.898L770.789 683.875L769.812 684.852L768.836 685.828V687.781L767.859 688.758L766.883 689.734L765.906 690.711L764.93 691.688L763.953 692.664L762.977 693.641L762 694.617L761.023 695.594V697.547L760.047 698.523L759.07 699.5L758.094 700.477L757.117 701.453L756.141 702.43L755.164 703.406L754.188 704.383L753.211 705.359L752.234 706.336L751.258 707.312L750.281 708.289L749.305 709.266L748.328 710.242L747.352 711.219L746.375 712.195L745.398 713.172L744.422 714.148L743.445 715.125L742.469 716.102L741.492 717.078L740.516 718.055L739.539 719.031L738.562 720.008L737.586 720.984L736.609 721.961L735.633 722.938L734.656 723.914L733.68 724.891L732.703 725.867L731.727 726.844L730.75 727.82H728.797L727.82 728.797L726.844 729.773L725.867 730.75L724.891 731.727L723.914 732.703L722.938 733.68H720.984L720.008 734.656L719.031 735.633L718.055 736.609L717.078 737.586H715.125L714.148 738.562L713.172 739.539L712.195 740.516L711.219 741.492H709.266L708.289 742.469L707.312 743.445H705.359L704.383 744.422L703.406 745.398H701.453L700.477 746.375L699.5 747.352H697.547L696.57 748.328L695.594 749.305H693.641L692.664 750.281L691.688 751.258H689.734L688.758 752.234L687.781 753.211H685.828H683.875L682.898 754.188L681.922 755.164H679.969H678.016L677.039 756.141L676.062 757.117H674.109H672.156L671.18 758.094L670.203 759.07H668.25H666.297H664.344L663.367 760.047L662.391 761.023Z" stroke="var(--logo)" stroke-width="10"/>
<path d="M379.188 751.258H377.234H375.281L374.305 750.281L373.328 749.305L372.352 748.328L371.375 747.352L370.398 746.375L369.422 745.398L368.445 744.422L367.469 743.445L366.492 742.469L365.516 741.492L364.539 740.516L363.562 739.539L362.586 738.562L361.609 737.586L360.633 736.609L359.656 735.633L358.68 734.656L357.703 733.68L356.727 732.703L355.75 731.727L354.773 730.75L353.797 729.773L352.82 728.797L351.844 727.82L350.867 726.844L349.891 725.867L348.914 724.891L347.938 723.914L346.961 722.938L345.984 721.961L345.008 720.984V719.031L344.031 718.055L343.055 717.078L342.078 716.102L341.102 715.125L340.125 714.148L339.148 713.172L338.172 712.195L337.195 711.219L336.219 710.242L335.242 709.266L334.266 708.289L333.289 707.312L332.312 706.336L331.336 705.359L330.359 704.383L329.383 703.406L328.406 702.43L327.43 701.453L326.453 700.477L325.477 699.5V697.547L324.5 696.57L323.523 695.594L322.547 694.617L321.57 693.641L320.594 692.664L319.617 691.688L318.641 690.711L317.664 689.734L316.688 688.758L315.711 687.781L314.734 686.805L313.758 685.828V683.875L312.781 682.898L311.805 681.922L310.828 680.945L309.852 679.969L308.875 678.992L307.898 678.016L306.922 677.039L305.945 676.062V674.109L304.969 673.133L303.992 672.156L303.016 671.18L302.039 670.203L301.062 669.227L300.086 668.25L299.109 667.273L298.133 666.297V664.344L297.156 663.367L296.18 662.391L295.203 661.414L294.227 660.438L293.25 659.461L292.273 658.484L291.297 657.508L290.32 656.531V654.578L289.344 653.602L288.367 652.625L287.391 651.648L286.414 650.672V648.719L285.438 647.742L284.461 646.766L283.484 645.789L282.508 644.812L281.531 643.836L280.555 642.859V640.906L279.578 639.93L278.602 638.953L277.625 637.977L276.648 637V635.047L275.672 634.07L274.695 633.094L273.719 632.117L272.742 631.141V629.188L271.766 628.211L270.789 627.234L269.812 626.258L268.836 625.281V623.328L267.859 622.352L266.883 621.375L265.906 620.398L264.93 619.422V617.469L263.953 616.492L262.977 615.516L262 614.539L261.023 613.562V611.609L260.047 610.633L259.07 609.656V607.703L258.094 606.727L257.117 605.75L256.141 604.773L255.164 603.797V601.844L254.188 600.867L253.211 599.891V597.938L252.234 596.961L251.258 595.984L250.281 595.008L249.305 594.031V592.078L248.328 591.102L247.352 590.125V588.172L246.375 587.195L245.398 586.219V584.266L244.422 583.289L243.445 582.312V580.359L242.469 579.383L241.492 578.406L240.516 577.43L239.539 576.453V574.5L238.562 573.523L237.586 572.547V570.594L236.609 569.617L235.633 568.641V566.688L234.656 565.711L233.68 564.734V562.781L232.703 561.805L231.727 560.828V558.875V556.922L230.75 555.945L229.773 554.969V553.016L228.797 552.039L227.82 551.062V549.109L226.844 548.133L225.867 547.156V545.203L224.891 544.227L223.914 543.25V541.297V539.344L222.938 538.367L221.961 537.391V535.438L220.984 534.461L220.008 533.484V531.531V529.578L219.031 528.602L218.055 527.625V525.672V523.719L217.078 522.742L216.102 521.766V519.812L215.125 518.836L214.148 517.859V515.906V513.953L213.172 512.977L212.195 512V510.047V508.094L211.219 507.117L210.242 506.141V504.188V502.234L209.266 501.258L208.289 500.281V498.328V496.375V494.422L207.312 493.445L206.336 492.469V490.516V488.562L205.359 487.586L204.383 486.609V484.656V482.703L203.406 481.727L202.43 480.75V478.797V476.844V474.891L201.453 473.914L200.477 472.938V470.984V469.031V467.078L199.5 466.102L198.523 465.125V463.172V461.219V459.266V457.312L197.547 456.336L196.57 455.359V453.406V451.453V449.5V447.547L195.594 446.57L194.617 445.594V443.641V441.688V439.734V437.781L193.641 436.805L192.664 435.828V433.875V431.922V429.969V428.016V426.062L191.688 425.086L190.711 424.109V422.156V420.203V418.25V416.297V414.344V412.391L189.734 411.414L188.758 410.438V408.484V406.531V404.578V402.625V400.672V398.719V396.766L187.781 395.789L186.805 394.812V392.859V390.906V388.953V387V385.047V383.094V381.141V379.188V377.234V375.281V373.328L185.828 372.352L184.852 371.375V369.422V367.469V365.516V363.562V361.609V359.656V357.703V355.75V353.797V351.844V349.891V347.938V345.984V344.031V342.078V340.125V338.172V336.219V334.266V332.312V330.359V328.406V326.453V324.5V322.547V320.594V318.641V316.688V314.734V312.781V310.828V308.875V306.922V304.969V303.016V301.062V299.109V297.156V295.203V293.25V291.297V289.344V287.391V285.438V283.484V281.531V279.578V277.625V275.672V273.719V271.766V269.812V267.859V265.906V263.953V262V260.047V258.094V256.141V254.188V252.234V250.281V248.328V246.375V244.422V242.469V240.516V238.562V236.609V234.656V232.703V230.75V228.797V226.844V224.891L185.828 223.914H187.781L188.758 222.938L189.734 221.961H191.688H193.641H195.594H197.547H199.5H201.453H203.406L204.383 220.984L205.359 220.008H207.312H209.266H211.219H213.172H215.125H217.078L218.055 219.031L219.031 218.055H220.984H222.938H224.891H226.844H228.797L229.773 217.078L230.75 216.102H232.703H234.656H236.609H238.562L239.539 215.125L240.516 214.148H242.469H244.422H246.375H248.328H250.281L251.258 213.172L252.234 212.195H254.188H256.141H258.094L259.07 211.219L260.047 210.242H262H263.953H265.906H267.859L268.836 209.266L269.812 208.289H271.766H273.719H275.672L276.648 207.312L277.625 206.336H279.578H281.531H283.484L284.461 205.359L285.438 204.383H287.391H289.344H291.297L292.273 203.406L293.25 202.43H295.203H297.156L298.133 201.453L299.109 200.477H301.062H303.016H304.969L305.945 199.5L306.922 198.523H308.875H310.828L311.805 197.547L312.781 196.57H314.734H316.688H318.641L319.617 195.594L320.594 194.617H322.547H324.5L325.477 193.641L326.453 192.664H328.406H330.359L331.336 191.688L332.312 190.711H334.266H336.219L337.195 189.734L338.172 188.758H340.125H342.078L343.055 187.781L344.031 186.805H345.984H347.938L348.914 185.828L349.891 184.852H351.844L352.82 183.875L353.797 182.898H355.75H357.703L358.68 181.922L359.656 180.945H361.609H363.562L364.539 179.969L365.516 178.992H367.469H369.422L370.398 178.016L371.375 177.039H373.328L374.305 176.062L375.281 175.086H377.234H379.188L380.164 174.109L381.141 173.133H383.094L384.07 172.156L385.047 171.18H387H388.953L389.93 170.203L390.906 169.227H392.859L393.836 168.25L394.812 167.273H396.766L397.742 166.297L398.719 165.32H400.672H402.625L403.602 164.344L404.578 163.367H406.531L407.508 162.391L408.484 161.414H410.438L411.414 160.438L412.391 159.461H414.344L415.32 158.484L416.297 157.508H418.25L419.227 156.531L420.203 155.555H422.156L423.133 154.578L424.109 153.602H426.062L427.039 152.625L428.016 151.648H429.969L430.945 150.672L431.922 149.695H433.875L434.852 148.719L435.828 147.742H437.781L438.758 146.766L439.734 145.789H441.688L442.664 144.812L443.641 143.836H445.594L446.57 142.859L447.547 141.883H449.5L450.477 140.906L451.453 139.93H453.406L454.383 138.953L455.359 137.977L456.336 137L457.312 136.023H459.266L460.242 135.047L461.219 134.07H463.172L464.148 133.094L465.125 132.117L466.102 131.141L467.078 130.164H469.031L470.008 129.188L470.984 128.211H472.938L473.914 127.234L474.891 126.258L475.867 125.281L476.844 124.305H478.797L479.773 123.328L480.75 122.352H482.703L483.68 121.375L484.656 120.398L485.633 119.422L486.609 118.445H488.562L489.539 117.469L490.516 116.492L491.492 115.516L492.469 114.539L493.445 113.562L494.422 112.586H496.375L497.352 111.609L498.328 110.633L499.305 109.656L500.281 108.68H502.234L503.211 107.703L504.188 106.727L505.164 105.75L506.141 104.773L507.117 105.75L508.094 106.727L509.07 107.703L510.047 108.68H512L512.977 109.656L513.953 110.633L514.93 111.609L515.906 112.586H517.859L518.836 113.562L519.812 114.539L520.789 115.516L521.766 116.492H523.719L524.695 117.469L525.672 118.445L526.648 119.422L527.625 120.398H529.578L530.555 121.375L531.531 122.352L532.508 123.328L533.484 124.305H535.438L536.414 125.281L537.391 126.258H539.344L540.32 127.234L541.297 128.211L542.273 129.188L543.25 130.164H545.203L546.18 131.141L547.156 132.117H549.109L550.086 133.094L551.062 134.07L552.039 135.047L553.016 136.023H554.969L555.945 137L556.922 137.977H558.875L559.852 138.953L560.828 139.93H562.781L563.758 140.906L564.734 141.883L565.711 142.859L566.688 143.836H568.641L569.617 144.812L570.594 145.789H572.547L573.523 146.766L574.5 147.742H576.453L577.43 148.719L578.406 149.695H580.359L581.336 150.672L582.312 151.648H584.266L585.242 152.625L586.219 153.602H588.172L589.148 154.578L590.125 155.555H592.078L593.055 156.531L594.031 157.508H595.984L596.961 158.484L597.938 159.461H599.891H601.844L602.82 160.438L603.797 161.414H605.75L606.727 162.391L607.703 163.367H609.656L610.633 164.344L611.609 165.32H613.562L614.539 166.297L615.516 167.273H617.469L618.445 168.25L619.422 169.227H621.375H623.328L624.305 170.203L625.281 171.18H627.234L628.211 172.156L629.188 173.133H631.141H633.094L634.07 174.109L635.047 175.086H637L637.977 176.062L638.953 177.039H640.906H642.859L643.836 178.016L644.812 178.992H646.766L647.742 179.969L648.719 180.945H650.672H652.625L653.602 181.922L654.578 182.898H656.531H658.484L659.461 183.875L660.438 184.852H662.391H664.344L665.32 185.828L666.297 186.805H668.25H670.203L671.18 187.781L672.156 188.758H674.109H676.062L677.039 189.734L678.016 190.711H679.969H681.922L682.898 191.688L683.875 192.664H685.828H687.781L688.758 193.641L689.734 194.617H691.688H693.641L694.617 195.594L695.594 196.57H697.547H699.5L700.477 197.547L701.453 198.523H703.406H705.359H707.312L708.289 199.5L709.266 200.477H711.219H713.172L714.148 201.453L715.125 202.43H717.078H719.031H720.984L721.961 203.406L722.938 204.383H724.891H726.844H728.797L729.773 205.359L730.75 206.336H732.703H734.656H736.609L737.586 207.312L738.562 208.289H740.516H742.469H744.422L745.398 209.266L746.375 210.242H748.328H750.281H752.234H754.188L755.164 211.219L756.141 212.195H758.094H760.047H762L762.977 213.172L763.953 214.148H765.906H767.859H769.812H771.766L772.742 215.125L773.719 216.102H775.672H777.625H779.578H781.531H783.484L784.461 217.078L785.438 218.055H787.391H789.344H791.297H793.25H795.203L796.18 219.031L797.156 220.008H799.109H801.062H803.016H804.969H806.922L807.898 220.984L808.875 221.961H810.828H812.781H814.734H816.688H818.641H820.594H822.547L823.523 222.938L824.5 223.914H826.453L827.43 224.891V226.844V228.797V230.75V232.703V234.656V236.609V238.562V240.516V242.469V244.422V246.375V248.328V250.281V252.234V254.188V256.141V258.094V260.047V262V263.953V265.906V267.859V269.812V271.766V273.719V275.672V277.625V279.578V281.531V283.484V285.438V287.391V289.344V291.297V293.25V295.203V297.156V299.109V301.062V303.016V304.969V306.922V308.875V310.828V312.781V314.734V316.688V318.641V320.594V322.547V324.5V326.453V328.406V330.359V332.312V334.266V336.219V338.172V340.125V342.078V344.031V345.984V347.938V349.891V351.844V353.797V355.75V357.703V359.656V361.609V363.562V365.516V367.469V369.422V371.375V373.328V375.281V377.234V379.188V381.141V383.094L826.453 384.07L825.477 385.047V387V388.953V390.906V392.859V394.812V396.766V398.719V400.672V402.625L824.5 403.602L823.523 404.578V406.531V408.484V410.438V412.391V414.344V416.297L822.547 417.273L821.57 418.25V420.203V422.156V424.109V426.062V428.016V429.969L820.594 430.945L819.617 431.922V433.875V435.828V437.781V439.734V441.688L818.641 442.664L817.664 443.641V445.594V447.547V449.5V451.453L816.688 452.43L815.711 453.406V455.359V457.312V459.266L814.734 460.242L813.758 461.219V463.172V465.125V467.078V469.031L812.781 470.008L811.805 470.984V472.938V474.891V476.844L810.828 477.82L809.852 478.797V480.75V482.703L808.875 483.68L807.898 484.656V486.609V488.562V490.516L806.922 491.492L805.945 492.469V494.422V496.375L804.969 497.352L803.992 498.328V500.281V502.234L803.016 503.211L802.039 504.188V506.141V508.094L801.062 509.07L800.086 510.047V512V513.953L799.109 514.93L798.133 515.906V517.859V519.812L797.156 520.789L796.18 521.766V523.719V525.672L795.203 526.648L794.227 527.625V529.578L793.25 530.555L792.273 531.531V533.484V535.438L791.297 536.414L790.32 537.391V539.344L789.344 540.32L788.367 541.297V543.25V545.203L787.391 546.18L786.414 547.156V549.109L785.438 550.086L784.461 551.062V553.016L783.484 553.992L782.508 554.969V556.922L781.531 557.898L780.555 558.875V560.828L779.578 561.805L778.602 562.781V564.734V566.688L777.625 567.664L776.648 568.641L775.672 569.617L774.695 570.594V572.547L773.719 573.523L772.742 574.5V576.453L771.766 577.43L770.789 578.406V580.359L769.812 581.336L768.836 582.312V584.266L767.859 585.242L766.883 586.219V588.172L765.906 589.148L764.93 590.125V592.078L763.953 593.055L762.977 594.031V595.984L762 596.961L761.023 597.938L760.047 598.914L759.07 599.891V601.844L758.094 602.82L757.117 603.797L756.141 604.773L755.164 605.75V607.703L754.188 608.68L753.211 609.656V611.609L752.234 612.586L751.258 613.562L750.281 614.539L749.305 615.516V617.469L748.328 618.445L747.352 619.422V621.375L746.375 622.352L745.398 623.328L744.422 624.305L743.445 625.281L742.469 626.258L741.492 627.234V629.188L740.516 630.164L739.539 631.141V633.094L738.562 634.07L737.586 635.047L736.609 636.023L735.633 637L734.656 637.977L733.68 638.953V640.906L732.703 641.883L731.727 642.859L730.75 643.836L729.773 644.812V646.766L728.797 647.742L727.82 648.719L726.844 649.695L725.867 650.672L724.891 651.648L723.914 652.625V654.578L722.938 655.555L721.961 656.531L720.984 657.508L720.008 658.484L719.031 659.461L718.055 660.438V662.391L717.078 663.367L716.102 664.344L715.125 665.32L714.148 666.297L713.172 667.273L712.195 668.25V670.203L711.219 671.18L710.242 672.156L709.266 673.133L708.289 674.109L707.312 675.086L706.336 676.062L705.359 677.039L704.383 678.016L703.406 678.992L702.43 679.969V681.922L701.453 682.898L700.477 683.875L699.5 684.852L698.523 685.828L697.547 686.805L696.57 687.781L695.594 688.758L694.617 689.734L693.641 690.711L692.664 691.688L691.688 692.664L690.711 693.641V695.594L689.734 696.57L688.758 697.547L687.781 698.523L686.805 699.5L685.828 700.477L684.852 701.453L683.875 702.43L682.898 703.406L681.922 704.383L680.945 705.359L679.969 706.336L678.992 707.312L678.016 708.289L677.039 709.266L676.062 710.242L675.086 711.219L674.109 712.195L673.133 713.172L672.156 714.148L671.18 715.125V717.078L670.203 718.055L669.227 719.031L668.25 720.008L667.273 720.984L666.297 721.961L665.32 722.938L664.344 723.914L663.367 724.891L662.391 725.867L661.414 726.844L660.438 727.82L659.461 728.797L658.484 729.773H656.531H654.578H652.625H650.672H648.719L647.742 730.75L646.766 731.727H644.812H642.859H640.906H638.953H637H635.047H633.094H631.141H629.188H627.234H625.281H623.328H621.375H619.422H617.469H615.516H613.562H611.609H609.656L608.68 730.75L607.703 729.773H605.75H603.797H601.844H599.891L598.914 728.797L597.938 727.82H595.984H594.031H592.078L591.102 726.844L590.125 725.867H588.172H586.219L585.242 724.891L584.266 723.914H582.312H580.359L579.383 722.938L578.406 721.961H576.453H574.5L573.523 720.984L572.547 720.008H570.594L569.617 719.031L568.641 718.055H566.688L565.711 717.078L564.734 716.102H562.781L561.805 715.125L560.828 714.148H558.875L557.898 713.172L556.922 712.195H554.969L553.992 711.219L553.016 710.242H551.062L550.086 709.266L549.109 708.289L548.133 707.312L547.156 706.336H545.203L544.227 705.359L543.25 704.383H541.297L540.32 703.406L539.344 702.43L538.367 701.453L537.391 700.477H535.438L534.461 699.5V697.547L535.438 696.57L536.414 695.594L537.391 694.617L538.367 693.641L539.344 692.664H541.297L542.273 691.688L543.25 690.711L544.227 689.734L545.203 688.758L546.18 687.781L547.156 686.805H549.109L550.086 685.828L551.062 684.852L552.039 683.875L553.016 682.898L553.992 681.922L554.969 680.945L555.945 679.969L556.922 678.992H558.875L559.852 678.016L560.828 677.039L561.805 676.062L562.781 675.086L563.758 674.109L564.734 673.133L565.711 672.156L566.688 671.18L567.664 670.203L568.641 669.227H570.594L571.57 668.25L572.547 667.273L573.523 666.297L574.5 665.32L575.477 664.344L576.453 663.367L577.43 662.391L578.406 661.414L579.383 660.438L580.359 659.461H582.312L583.289 658.484L584.266 657.508L585.242 656.531L586.219 655.555L587.195 654.578L588.172 653.602L589.148 652.625L590.125 651.648L591.102 650.672L592.078 649.695L593.055 648.719L594.031 647.742H595.984L596.961 646.766L597.938 645.789L598.914 644.812L599.891 643.836L600.867 642.859L601.844 641.883L602.82 640.906L603.797 639.93L604.773 638.953L605.75 637.977L606.727 637L607.703 636.023L608.68 635.047L609.656 634.07L610.633 633.094L611.609 632.117L612.586 631.141L613.562 630.164H615.516L616.492 629.188L617.469 628.211L618.445 627.234L619.422 626.258L620.398 625.281L621.375 624.305L622.352 623.328L623.328 622.352L624.305 621.375L625.281 620.398L626.258 619.422L627.234 618.445L628.211 617.469L629.188 616.492L630.164 615.516L631.141 614.539L632.117 613.562L633.094 612.586L634.07 611.609L635.047 610.633L636.023 609.656L637 608.68L637.977 607.703L638.953 606.727L639.93 605.75L640.906 604.773L641.883 603.797L642.859 602.82L643.836 601.844L644.812 600.867L645.789 599.891L646.766 598.914L647.742 597.938L648.719 596.961L649.695 595.984L650.672 595.008L651.648 594.031L652.625 593.055L653.602 592.078L654.578 591.102L655.555 590.125L656.531 589.148L657.508 588.172L658.484 587.195L659.461 586.219L660.438 585.242L661.414 584.266L662.391 583.289L663.367 582.312L664.344 581.336L665.32 580.359L666.297 579.383L667.273 578.406L668.25 577.43L669.227 576.453V574.5L670.203 573.523L671.18 572.547L672.156 571.57L673.133 570.594L674.109 569.617L675.086 568.641L676.062 567.664L677.039 566.688L678.016 565.711L678.992 564.734V562.781L679.969 561.805L680.945 560.828L681.922 559.852L682.898 558.875L683.875 557.898L684.852 556.922L685.828 555.945L686.805 554.969V553.016L687.781 552.039L688.758 551.062L689.734 550.086L690.711 549.109L691.688 548.133L692.664 547.156L693.641 546.18L694.617 545.203V543.25L695.594 542.273L696.57 541.297L697.547 540.32L698.523 539.344L699.5 538.367L700.477 537.391V535.438L701.453 534.461L702.43 533.484L703.406 532.508L704.383 531.531V529.578L705.359 528.602L706.336 527.625L707.312 526.648L708.289 525.672V523.719L709.266 522.742L710.242 521.766L711.219 520.789L712.195 519.812V517.859L713.172 516.883L714.148 515.906V513.953L715.125 512.977L716.102 512V510.047L717.078 509.07L718.055 508.094L719.031 507.117L720.008 506.141V504.188L720.984 503.211L721.961 502.234V500.281L722.938 499.305L723.914 498.328V496.375L724.891 495.398L725.867 494.422V492.469L726.844 491.492L727.82 490.516V488.562L728.797 487.586L729.773 486.609V484.656V482.703L730.75 481.727L731.727 480.75V478.797L732.703 477.82L733.68 476.844V474.891V472.938L734.656 471.961L735.633 470.984V469.031V467.078L736.609 466.102L737.586 465.125V463.172V461.219L738.562 460.242L739.539 459.266V457.312V455.359V453.406L740.516 452.43L741.492 451.453V449.5V447.547V445.594L742.469 444.617L743.445 443.641V441.688V439.734V437.781V435.828V433.875V431.922L744.422 430.945L745.398 429.969V428.016V426.062V424.109V422.156V420.203V418.25V416.297V414.344V412.391V410.438V408.484V406.531V404.578V402.625V400.672V398.719V396.766V394.812V392.859L744.422 391.883L743.445 390.906V388.953V387V385.047V383.094V381.141L742.469 380.164L741.492 379.188V377.234V375.281V373.328V371.375L740.516 370.398L739.539 369.422V367.469V365.516L738.562 364.539L737.586 363.562V361.609V359.656L736.609 358.68L735.633 357.703V355.75V353.797L734.656 352.82L733.68 351.844V349.891L732.703 348.914L731.727 347.938V345.984L730.75 345.008L729.773 344.031V342.078L728.797 341.102L727.82 340.125V338.172L726.844 337.195L725.867 336.219V334.266L724.891 333.289L723.914 332.312L722.938 331.336L721.961 330.359V328.406L720.984 327.43L720.008 326.453L719.031 325.477L718.055 324.5L717.078 323.523L716.102 322.547V320.594L715.125 319.617L714.148 318.641L713.172 317.664L712.195 316.688L711.219 315.711L710.242 314.734L709.266 313.758L708.289 312.781L707.312 311.805L706.336 310.828L705.359 309.852L704.383 308.875L703.406 307.898L702.43 306.922L701.453 305.945L700.477 304.969L699.5 303.992L698.523 303.016L697.547 302.039L696.57 301.062L695.594 300.086L694.617 299.109L693.641 298.133H691.688L690.711 297.156L689.734 296.18L688.758 295.203L687.781 294.227L686.805 293.25L685.828 292.273H683.875L682.898 291.297L681.922 290.32H679.969L678.992 289.344L678.016 288.367L677.039 287.391L676.062 286.414H674.109L673.133 285.438L672.156 284.461H670.203L669.227 283.484L668.25 282.508H666.297L665.32 281.531L664.344 280.555H662.391H660.438L659.461 279.578L658.484 278.602H656.531H654.578L653.602 277.625L652.625 276.648H650.672H648.719L647.742 275.672L646.766 274.695H644.812H642.859H640.906H638.953L637.977 273.719L637 272.742H635.047H633.094H631.141H629.188H627.234H625.281L624.305 271.766L623.328 270.789H621.375H619.422H617.469H615.516H613.562H611.609H609.656H607.703H605.75H603.797L602.82 271.766L601.844 272.742H599.891H597.938H595.984H594.031H592.078H590.125L589.148 273.719L588.172 274.695H586.219H584.266H582.312L581.336 275.672L580.359 276.648H578.406H576.453H574.5L573.523 277.625L572.547 278.602H570.594L569.617 279.578L568.641 280.555H566.688H564.734L563.758 281.531L562.781 282.508H560.828L559.852 283.484L558.875 284.461H556.922L555.945 285.438L554.969 286.414H553.016L552.039 287.391L551.062 288.367H549.109L548.133 289.344L547.156 290.32L546.18 291.297L545.203 292.273H543.25L542.273 293.25L541.297 294.227L540.32 295.203L539.344 296.18H537.391L536.414 297.156L535.438 298.133L534.461 299.109L533.484 300.086L532.508 301.062L531.531 302.039H529.578L528.602 303.016L527.625 303.992L526.648 304.969L525.672 305.945L524.695 306.922L523.719 307.898L522.742 308.875L521.766 309.852L520.789 310.828V312.781L519.812 313.758L518.836 314.734L517.859 315.711L516.883 316.688L515.906 317.664L514.93 318.641L513.953 319.617L512.977 320.594L512 321.57L511.023 322.547L510.047 323.523L509.07 324.5V326.453L508.094 327.43H506.141L505.164 326.453L504.188 325.477L503.211 324.5L502.234 323.523L501.258 322.547L500.281 321.57L499.305 320.594V318.641L498.328 317.664L497.352 316.688L496.375 315.711L495.398 314.734L494.422 313.758L493.445 312.781L492.469 311.805L491.492 310.828L490.516 309.852L489.539 308.875L488.562 307.898L487.586 306.922L486.609 305.945L485.633 304.969L484.656 303.992L483.68 303.016L482.703 302.039L481.727 301.062L480.75 300.086L479.773 299.109L478.797 298.133H476.844L475.867 297.156L474.891 296.18L473.914 295.203L472.938 294.227H470.984L470.008 293.25L469.031 292.273L468.055 291.297L467.078 290.32H465.125L464.148 289.344L463.172 288.367L462.195 287.391L461.219 286.414H459.266L458.289 285.438L457.312 284.461H455.359L454.383 283.484L453.406 282.508H451.453L450.477 281.531L449.5 280.555H447.547H445.594L444.617 279.578L443.641 278.602H441.688H439.734L438.758 277.625L437.781 276.648H435.828H433.875L432.898 275.672L431.922 274.695H429.969H428.016H426.062H424.109L423.133 273.719L422.156 272.742H420.203H418.25H416.297H414.344H412.391H410.438H408.484L407.508 271.766L406.531 270.789H404.578H402.625H400.672H398.719H396.766H394.812H392.859H390.906L389.93 271.766L388.953 272.742H387H385.047H383.094H381.141H379.188H377.234H375.281L374.305 273.719L373.328 274.695H371.375H369.422H367.469H365.516L364.539 275.672L363.562 276.648H361.609H359.656L358.68 277.625L357.703 278.602H355.75H353.797L352.82 279.578L351.844 280.555H349.891L348.914 281.531L347.938 282.508H345.984L345.008 283.484L344.031 284.461H342.078L341.102 285.438L340.125 286.414H338.172L337.195 287.391L336.219 288.367H334.266L333.289 289.344L332.312 290.32H330.359L329.383 291.297L328.406 292.273L327.43 293.25L326.453 294.227H324.5L323.523 295.203L322.547 296.18L321.57 297.156L320.594 298.133L319.617 299.109L318.641 300.086H316.688L315.711 301.062L314.734 302.039L313.758 303.016L312.781 303.992L311.805 304.969L310.828 305.945L309.852 306.922L308.875 307.898L307.898 308.875L306.922 309.852L305.945 310.828L304.969 311.805L303.992 312.781L303.016 313.758L302.039 314.734L301.062 315.711L300.086 316.688L299.109 317.664L298.133 318.641V320.594L297.156 321.57L296.18 322.547L295.203 323.523L294.227 324.5L293.25 325.477L292.273 326.453V328.406L291.297 329.383L290.32 330.359L289.344 331.336L288.367 332.312V334.266L287.391 335.242L286.414 336.219V338.172L285.438 339.148L284.461 340.125V342.078L283.484 343.055L282.508 344.031V345.984L281.531 346.961L280.555 347.938V349.891L279.578 350.867L278.602 351.844V353.797L277.625 354.773L276.648 355.75V357.703V359.656L275.672 360.633L274.695 361.609V363.562V365.516L273.719 366.492L272.742 367.469V369.422V371.375L271.766 372.352L270.789 373.328V375.281V377.234V379.188V381.141L269.812 382.117L268.836 383.094V385.047V387V388.953V390.906V392.859V394.812L267.859 395.789L266.883 396.766V398.719V400.672V402.625V404.578V406.531V408.484V410.438V412.391V414.344V416.297V418.25V420.203V422.156V424.109L267.859 425.086L268.836 426.062V428.016V429.969V431.922V433.875V435.828V437.781V439.734L269.812 440.711L270.789 441.688V443.641V445.594V447.547V449.5L271.766 450.477L272.742 451.453V453.406V455.359V457.312L273.719 458.289L274.695 459.266V461.219V463.172L275.672 464.148L276.648 465.125V467.078V469.031L277.625 470.008L278.602 470.984V472.938V474.891L279.578 475.867L280.555 476.844V478.797V480.75L281.531 481.727L282.508 482.703V484.656L283.484 485.633L284.461 486.609V488.562L285.438 489.539L286.414 490.516V492.469L287.391 493.445L288.367 494.422V496.375L289.344 497.352L290.32 498.328V500.281L291.297 501.258L292.273 502.234V504.188L293.25 505.164L294.227 506.141V508.094L295.203 509.07L296.18 510.047V512L297.156 512.977L298.133 513.953L299.109 514.93L300.086 515.906V517.859L301.062 518.836L302.039 519.812V521.766L303.016 522.742L303.992 523.719L304.969 524.695L305.945 525.672V527.625L306.922 528.602L307.898 529.578L308.875 530.555L309.852 531.531V533.484L310.828 534.461L311.805 535.438L312.781 536.414L313.758 537.391V539.344L314.734 540.32L315.711 541.297L316.688 542.273L317.664 543.25L318.641 544.227L319.617 545.203L320.594 546.18L321.57 547.156V549.109L322.547 550.086L323.523 551.062L324.5 552.039L325.477 553.016L326.453 553.992L327.43 554.969V556.922L328.406 557.898L329.383 558.875L330.359 559.852L331.336 560.828L332.312 561.805L333.289 562.781L334.266 563.758L335.242 564.734L336.219 565.711L337.195 566.688V568.641L338.172 569.617L339.148 570.594L340.125 571.57L341.102 572.547L342.078 573.523L343.055 574.5L344.031 575.477L345.008 576.453L345.984 577.43L346.961 578.406L347.938 579.383L348.914 580.359L349.891 581.336L350.867 582.312L351.844 583.289L352.82 584.266V586.219L353.797 587.195L354.773 588.172L355.75 589.148L356.727 590.125L357.703 591.102L358.68 592.078L359.656 593.055L360.633 594.031L361.609 595.008L362.586 595.984L363.562 596.961L364.539 597.938L365.516 598.914L366.492 599.891L367.469 600.867L368.445 601.844L369.422 602.82L370.398 603.797L371.375 604.773L372.352 605.75L373.328 606.727L374.305 607.703L375.281 608.68L376.258 609.656L377.234 610.633L378.211 611.609L379.188 612.586L380.164 613.562L381.141 614.539L382.117 615.516L383.094 616.492L384.07 617.469L385.047 618.445L386.023 619.422L387 620.398L387.977 621.375L388.953 622.352L389.93 623.328L390.906 624.305H392.859L393.836 625.281L394.812 626.258L395.789 627.234L396.766 628.211L397.742 629.188L398.719 630.164L399.695 631.141L400.672 632.117L401.648 633.094L402.625 634.07L403.602 635.047L404.578 636.023L405.555 637L406.531 637.977L407.508 638.953L408.484 639.93L409.461 640.906L410.438 641.883H412.391L413.367 642.859L414.344 643.836L415.32 644.812L416.297 645.789L417.273 646.766L418.25 647.742L419.227 648.719L420.203 649.695L421.18 650.672L422.156 651.648L423.133 652.625L424.109 653.602L425.086 654.578L426.062 655.555H428.016L428.992 656.531L429.969 657.508L430.945 658.484L431.922 659.461L432.898 660.438L433.875 661.414L434.852 662.391L435.828 663.367L436.805 664.344L437.781 665.32H439.734L440.711 666.297L441.688 667.273L442.664 668.25L443.641 669.227L444.617 670.203L445.594 671.18L446.57 672.156L447.547 673.133L448.523 674.109L449.5 675.086H451.453L452.43 676.062L453.406 677.039L454.383 678.016L455.359 678.992L456.336 679.969L457.312 680.945L458.289 681.922L459.266 682.898L460.242 683.875L461.219 684.852H463.172L464.148 685.828L465.125 686.805L466.102 687.781L467.078 688.758L468.055 689.734L469.031 690.711H470.984L471.961 691.688L472.938 692.664L473.914 693.641L474.891 694.617L475.867 695.594L476.844 696.57L477.82 697.547V699.5L476.844 700.477H474.891L473.914 701.453L472.938 702.43L471.961 703.406L470.984 704.383H469.031L468.055 705.359L467.078 706.336H465.125L464.148 707.312L463.172 708.289L462.195 709.266L461.219 710.242H459.266L458.289 711.219L457.312 712.195H455.359L454.383 713.172L453.406 714.148L452.43 715.125L451.453 716.102H449.5L448.523 717.078L447.547 718.055H445.594L444.617 719.031L443.641 720.008H441.688L440.711 720.984L439.734 721.961L438.758 722.938L437.781 723.914H435.828L434.852 724.891L433.875 725.867H431.922L430.945 726.844L429.969 727.82H428.016L427.039 728.797L426.062 729.773H424.109L423.133 730.75L422.156 731.727H420.203L419.227 732.703L418.25 733.68H416.297L415.32 734.656L414.344 735.633H412.391L411.414 736.609L410.438 737.586H408.484L407.508 738.562L406.531 739.539H404.578L403.602 740.516L402.625 741.492H400.672H398.719L397.742 742.469L396.766 743.445H394.812L393.836 744.422L392.859 745.398H390.906L389.93 746.375L388.953 747.352H387L386.023 748.328L385.047 749.305H383.094H381.141L380.164 750.281L379.188 751.258Z" stroke="black" stroke-width="10"/>
<path d="M664.344 981.727H662.391H660.438H658.484H656.531H654.578H652.625H650.672H648.719H646.766H644.812H642.859H640.906H638.953H637H635.047H633.094H631.141H629.188L628.211 980.75L627.234 979.773H625.281H623.328H621.375H619.422H617.469H615.516L614.539 978.797L613.562 977.82H611.609H609.656H607.703H605.75L604.773 976.844L603.797 975.867H601.844H599.891L598.914 974.891L597.938 973.914H595.984H594.031H592.078L591.102 972.938L590.125 971.961H588.172H586.219L585.242 970.984L584.266 970.008H582.312L581.336 969.031L580.359 968.055H578.406H576.453L575.477 967.078L574.5 966.102H572.547L571.57 965.125L570.594 964.148H568.641H566.688L565.711 963.172L564.734 962.195H562.781L561.805 961.219L560.828 960.242L559.852 959.266L558.875 958.289H556.922L555.945 957.312L554.969 956.336H553.016L552.039 955.359L551.062 954.383H549.109L548.133 953.406L547.156 952.43H545.203L544.227 951.453L543.25 950.477L542.273 949.5L541.297 948.523H539.344L538.367 947.547L537.391 946.57L536.414 945.594L535.438 944.617H533.484L532.508 943.641L531.531 942.664L530.555 941.688L529.578 940.711H527.625L526.648 939.734L525.672 938.758H523.719L522.742 937.781L521.766 936.805L520.789 935.828L519.812 934.852L518.836 933.875L517.859 932.898H515.906L514.93 931.922L513.953 930.945L512.977 929.969L512 928.992H510.047L509.07 928.016L508.094 927.039L507.117 926.062L506.141 925.086L505.164 924.109L504.188 923.133L503.211 922.156L504.188 921.18L505.164 920.203L506.141 919.227L507.117 918.25L508.094 917.273L509.07 916.297L510.047 915.32L511.023 914.344L512 913.367L512.977 912.391L513.953 911.414L514.93 910.438L515.906 909.461L516.883 908.484L517.859 907.508L518.836 906.531L519.812 905.555L520.789 904.578L521.766 903.602L522.742 902.625L523.719 901.648L524.695 900.672L525.672 899.695H527.625L528.602 900.672L529.578 901.648H531.531L532.508 902.625L533.484 903.602L534.461 904.578L535.438 905.555L536.414 906.531L537.391 907.508H539.344L540.32 908.484L541.297 909.461L542.273 910.438L543.25 911.414L544.227 912.391L545.203 913.367H547.156L548.133 914.344L549.109 915.32L550.086 916.297L551.062 917.273H553.016L553.992 918.25L554.969 919.227H556.922L557.898 920.203L558.875 921.18L559.852 922.156L560.828 923.133H562.781L563.758 924.109L564.734 925.086H566.688L567.664 926.062L568.641 927.039L569.617 928.016L570.594 928.992H572.547L573.523 929.969L574.5 930.945H576.453L577.43 931.922L578.406 932.898H580.359L581.336 933.875L582.312 934.852H584.266H586.219L587.195 935.828L588.172 936.805H590.125L591.102 937.781L592.078 938.758H594.031L595.008 939.734L595.984 940.711H597.938H599.891L600.867 941.688L601.844 942.664H603.797H605.75H607.703L608.68 943.641L609.656 944.617H611.609H613.562H615.516L616.492 945.594L617.469 946.57H619.422H621.375H623.328H625.281L626.258 947.547L627.234 948.523H629.188H631.141H633.094H635.047H637H638.953H640.906H642.859H644.812H646.766H648.719H650.672H652.625H654.578H656.531H658.484H660.438H662.391H664.344L665.32 947.547L666.297 946.57H668.25H670.203H672.156H674.109L675.086 945.594L676.062 944.617H678.016H679.969H681.922H683.875L684.852 943.641L685.828 942.664H687.781H689.734L690.711 941.688L691.688 940.711H693.641H695.594L696.57 939.734L697.547 938.758H699.5L700.477 937.781L701.453 936.805H703.406L704.383 935.828L705.359 934.852H707.312L708.289 933.875L709.266 932.898H711.219L712.195 931.922L713.172 930.945H715.125L716.102 929.969L717.078 928.992H719.031L720.008 928.016L720.984 927.039L721.961 926.062L722.938 925.086H724.891L725.867 924.109L726.844 923.133L727.82 922.156L728.797 921.18H730.75L731.727 920.203L732.703 919.227L733.68 918.25L734.656 917.273L735.633 916.297L736.609 915.32L737.586 914.344L738.562 913.367H740.516L741.492 912.391L742.469 911.414L743.445 910.438L744.422 909.461L745.398 908.484L746.375 907.508L747.352 906.531L748.328 905.555L749.305 904.578L750.281 903.602L751.258 902.625L752.234 901.648L753.211 900.672L754.188 899.695L755.164 898.719L756.141 897.742L757.117 896.766L758.094 895.789L759.07 894.812L760.047 893.836L761.023 892.859L762 891.883L762.977 890.906V888.953L763.953 887.977L764.93 887L765.906 886.023L766.883 885.047L767.859 884.07L768.836 883.094L769.812 882.117L770.789 881.141V879.188L771.766 878.211L772.742 877.234L773.719 876.258L774.695 875.281L775.672 874.305L776.648 873.328V871.375L777.625 870.398L778.602 869.422L779.578 868.445L780.555 867.469V865.516L781.531 864.539L782.508 863.562L781.531 862.586L780.555 861.609V859.656L779.578 858.68L778.602 857.703L777.625 856.727L776.648 855.75L775.672 854.773L774.695 853.797V851.844L773.719 850.867L772.742 849.891L771.766 848.914L770.789 847.938V845.984L769.812 845.008L768.836 844.031V842.078V840.125L767.859 839.148L766.883 838.172V836.219V834.266V832.312L765.906 831.336L764.93 830.359V828.406V826.453V824.5V822.547V820.594V818.641V816.688V814.734V812.781V810.828V808.875V806.922V804.969V803.016V801.062V799.109V797.156V795.203L765.906 794.227L766.883 793.25V791.297V789.344V787.391L767.859 786.414L768.836 785.438V783.484V781.531V779.578L769.812 778.602L770.789 777.625V775.672V773.719L771.766 772.742L772.742 771.766V769.812L773.719 768.836L774.695 767.859L775.672 766.883L776.648 765.906V763.953L777.625 762.977L778.602 762L779.578 761.023L780.555 760.047L781.531 759.07L782.508 758.094V756.141V754.188L783.484 753.211L784.461 752.234V750.281V748.328L785.438 747.352L786.414 746.375V744.422L787.391 743.445L788.367 742.469V740.516V738.562L789.344 737.586L790.32 736.609V734.656V732.703L791.297 731.727L792.273 730.75V728.797L793.25 727.82L794.227 726.844V724.891V722.938L795.203 721.961L796.18 720.984V719.031L797.156 718.055L798.133 717.078V715.125L799.109 714.148L800.086 713.172V711.219V709.266L801.062 708.289L802.039 707.312V705.359L803.016 704.383L803.992 703.406L804.969 702.43L805.945 701.453V699.5L806.922 698.523L807.898 697.547L808.875 696.57L809.852 695.594L810.828 694.617L811.805 693.641L812.781 692.664L813.758 691.688L814.734 690.711L815.711 689.734L816.688 688.758L817.664 687.781L818.641 686.805H820.594L821.57 685.828L822.547 684.852H824.5L825.477 683.875L826.453 682.898H828.406H830.359H832.312L833.289 681.922L834.266 680.945H836.219H838.172H840.125H842.078H844.031H845.984H847.938L848.914 681.922L849.891 682.898H851.844H853.797H855.75H857.703L858.68 681.922L859.656 680.945H861.609H863.562H865.516H867.469H869.422L870.398 681.922L871.375 682.898H873.328L874.305 683.875L875.281 684.852L876.258 685.828L877.234 686.805L878.211 687.781L879.188 688.758L880.164 689.734L881.141 690.711L882.117 691.688V693.641V695.594V697.547V699.5V701.453V703.406V705.359V707.312L881.141 708.289L880.164 709.266L879.188 710.242L878.211 711.219L877.234 712.195L876.258 713.172L875.281 714.148L874.305 715.125L873.328 716.102H871.375H869.422L868.445 717.078L867.469 718.055H865.516H863.562H861.609L860.633 717.078L859.656 716.102H857.703H855.75L854.773 715.125L853.797 714.148L852.82 713.172L851.844 712.195L850.867 711.219L849.891 710.242L848.914 709.266V707.312L847.938 706.336L846.961 705.359L845.984 704.383H844.031H842.078H840.125H838.172H836.219H834.266L833.289 705.359L832.312 706.336H830.359L829.383 707.312L828.406 708.289L827.43 709.266L826.453 710.242L825.477 711.219L824.5 712.195L823.523 713.172L822.547 714.148L821.57 715.125V717.078L820.594 718.055L819.617 719.031V720.984V722.938L818.641 723.914L817.664 724.891V726.844L816.688 727.82L815.711 728.797V730.75L814.734 731.727L813.758 732.703V734.656V736.609L812.781 737.586L811.805 738.562V740.516V742.469L810.828 743.445L809.852 744.422V746.375L808.875 747.352L807.898 748.328V750.281V752.234L806.922 753.211L805.945 754.188V756.141V758.094L804.969 759.07L803.992 760.047V762L803.016 762.977L802.039 763.953V765.906V767.859V769.812L803.016 770.789L803.992 771.766V773.719V775.672V777.625V779.578V781.531V783.484L803.016 784.461L802.039 785.438V787.391V789.344L801.062 790.32L800.086 791.297V793.25V795.203V797.156L799.109 798.133L798.133 799.109V801.062V803.016V804.969V806.922L797.156 807.898L796.18 808.875V810.828V812.781V814.734V816.688V818.641L797.156 819.617L798.133 820.594V822.547V824.5V826.453V828.406L799.109 829.383L800.086 830.359V832.312L801.062 833.289L802.039 834.266V836.219L803.016 837.195L803.992 838.172L804.969 839.148L805.945 840.125L806.922 841.102L807.898 842.078L808.875 843.055L809.852 844.031L810.828 845.008H812.781L813.758 845.984L814.734 846.961H816.688L817.664 847.938L818.641 848.914H820.594H822.547H824.5H826.453H828.406H830.359H832.312H834.266H836.219H838.172H840.125L841.102 847.938L842.078 846.961H844.031L845.008 845.984L845.984 845.008H847.938L848.914 844.031L849.891 843.055H851.844L852.82 842.078L853.797 841.102L854.773 840.125L855.75 839.148H857.703L858.68 838.172L859.656 837.195L860.633 836.219L861.609 835.242L862.586 834.266L863.562 833.289L864.539 832.312L865.516 831.336L866.492 830.359L867.469 829.383L868.445 828.406L869.422 827.43L870.398 826.453L871.375 825.477H873.328L874.305 824.5L875.281 823.523L876.258 822.547L877.234 821.57H879.188H881.141L882.117 820.594L883.094 819.617H885.047L886.023 818.641L887 817.664L887.977 816.688L888.953 815.711L889.93 814.734L890.906 813.758L891.883 812.781L892.859 811.805L893.836 810.828L894.812 809.852L895.789 808.875L896.766 807.898L897.742 806.922L898.719 805.945L899.695 804.969L900.672 803.992L901.648 803.016V801.062L902.625 800.086L903.602 799.109L904.578 798.133L905.555 797.156L906.531 796.18L907.508 795.203L908.484 794.227L909.461 793.25L910.438 792.273L911.414 791.297L912.391 790.32L913.367 789.344L914.344 788.367L915.32 787.391V785.438L916.297 784.461L917.273 783.484L918.25 782.508L919.227 781.531L920.203 780.555L921.18 779.578V777.625L922.156 776.648L923.133 775.672V773.719L924.109 772.742L925.086 771.766V769.812V767.859L926.062 766.883L927.039 765.906V763.953V762L926.062 761.023L925.086 760.047V758.094V756.141L924.109 755.164L923.133 754.188V752.234L922.156 751.258L921.18 750.281L920.203 749.305H918.25H916.297H914.344H912.391H910.438L909.461 748.328L908.484 747.352H906.531L905.555 746.375L904.578 745.398L903.602 744.422V742.469L902.625 741.492L901.648 740.516L900.672 739.539L899.695 738.562V736.609V734.656V732.703V730.75V728.797V726.844L900.672 725.867L901.648 724.891V722.938L902.625 721.961L903.602 720.984L904.578 720.008L905.555 719.031L906.531 718.055L907.508 717.078L908.484 716.102L909.461 715.125L910.438 714.148H912.391H914.344H916.297H918.25H920.203H922.156H924.109L925.086 715.125L926.062 716.102L927.039 717.078L928.016 718.055H929.969L930.945 719.031V720.984L931.922 721.961L932.898 722.938L933.875 723.914L934.852 724.891V726.844V728.797V730.75L935.828 731.727L936.805 732.703V734.656L937.781 735.633L938.758 736.609L939.734 737.586L940.711 738.562V740.516L941.688 741.492L942.664 742.469V744.422L943.641 745.398L944.617 746.375V748.328L945.594 749.305L946.57 750.281V752.234V754.188V756.141V758.094L947.547 759.07L948.523 760.047V762V763.953V765.906V767.859V769.812V771.766L947.547 772.742L946.57 773.719V775.672V777.625V779.578L945.594 780.555L944.617 781.531V783.484L943.641 784.461L942.664 785.438V787.391L941.688 788.367L940.711 789.344L939.734 790.32L938.758 791.297V793.25L937.781 794.227L936.805 795.203L935.828 796.18L934.852 797.156L933.875 798.133L932.898 799.109L931.922 800.086L930.945 801.062V803.016L929.969 803.992L928.992 804.969L928.016 805.945L927.039 806.922L926.062 807.898L925.086 808.875L924.109 809.852L923.133 810.828L922.156 811.805L921.18 812.781L920.203 813.758L919.227 814.734L918.25 815.711L917.273 816.688V818.641L916.297 819.617L915.32 820.594L914.344 821.57L913.367 822.547L912.391 823.523L911.414 824.5L910.438 825.477L909.461 826.453L908.484 827.43L907.508 828.406L906.531 829.383L905.555 830.359L904.578 831.336L903.602 832.312L902.625 833.289L901.648 834.266V836.219L900.672 837.195L899.695 838.172V840.125V842.078L898.719 843.055L897.742 844.031V845.984L896.766 846.961L895.789 847.938L894.812 848.914L893.836 849.891L892.859 850.867L891.883 851.844L890.906 852.82L889.93 853.797L888.953 854.773L887.977 855.75L887 856.727L886.023 857.703L885.047 858.68L884.07 859.656L883.094 860.633L882.117 861.609L881.141 862.586L880.164 863.562L879.188 864.539H877.234L876.258 865.516L875.281 866.492L874.305 867.469L873.328 868.445H871.375L870.398 869.422L869.422 870.398L868.445 871.375L867.469 872.352H865.516L864.539 873.328L863.562 874.305H861.609L860.633 875.281L859.656 876.258H857.703H855.75L854.773 877.234L853.797 878.211H851.844H849.891L848.914 879.188L847.938 880.164H845.984H844.031H842.078L841.102 881.141L840.125 882.117H838.172H836.219H834.266H832.312H830.359H828.406H826.453H824.5H822.547H820.594H818.641L817.664 881.141L816.688 880.164H814.734H812.781H810.828L809.852 881.141L808.875 882.117L807.898 883.094V885.047L806.922 886.023L805.945 887L804.969 887.977L803.992 888.953V890.906L803.016 891.883L802.039 892.859L801.062 893.836L800.086 894.812V896.766L799.109 897.742L798.133 898.719L797.156 899.695L796.18 900.672L795.203 901.648L794.227 902.625V904.578L793.25 905.555L792.273 906.531L791.297 907.508L790.32 908.484L789.344 909.461L788.367 910.438L787.391 911.414L786.414 912.391V914.344L785.438 915.32L784.461 916.297L783.484 917.273L782.508 918.25L781.531 919.227L780.555 920.203L779.578 921.18L778.602 922.156L777.625 923.133L776.648 924.109L775.672 925.086L774.695 926.062L773.719 927.039L772.742 928.016L771.766 928.992L770.789 929.969L769.812 930.945L768.836 931.922L767.859 932.898L766.883 933.875L765.906 934.852L764.93 935.828L763.953 936.805L762.977 937.781L762 938.758H760.047L759.07 939.734L758.094 940.711L757.117 941.688L756.141 942.664L755.164 943.641L754.188 944.617L753.211 945.594L752.234 946.57H750.281L749.305 947.547L748.328 948.523L747.352 949.5L746.375 950.477H744.422L743.445 951.453L742.469 952.43L741.492 953.406L740.516 954.383H738.562L737.586 955.359L736.609 956.336L735.633 957.312L734.656 958.289H732.703L731.727 959.266L730.75 960.242H728.797L727.82 961.219L726.844 962.195H724.891L723.914 963.172L722.938 964.148H720.984L720.008 965.125L719.031 966.102H717.078L716.102 967.078L715.125 968.055H713.172H711.219L710.242 969.031L709.266 970.008H707.312L706.336 970.984L705.359 971.961H703.406H701.453L700.477 972.938L699.5 973.914H697.547H695.594H693.641L692.664 974.891L691.688 975.867H689.734H687.781L686.805 976.844L685.828 977.82H683.875H681.922H679.969H678.016L677.039 978.797L676.062 979.773H674.109H672.156H670.203H668.25H666.297L665.32 980.75L664.344 981.727Z" stroke="var(--logo)" stroke-width="10"/>
<path d="M486.609 843.055H484.656L483.68 842.078L482.703 841.102L481.727 840.125L480.75 839.148L479.773 838.172L478.797 837.195H476.844L475.867 836.219L474.891 835.242L473.914 834.266L472.938 833.289L471.961 832.312L470.984 831.336H469.031L468.055 830.359L467.078 829.383L466.102 828.406L465.125 827.43L464.148 826.453L463.172 825.477L462.195 824.5L461.219 823.523H459.266L458.289 822.547L457.312 821.57L456.336 820.594L455.359 819.617L454.383 818.641L453.406 817.664L452.43 816.688L451.453 815.711H449.5L448.523 814.734L447.547 813.758L446.57 812.781L445.594 811.805L444.617 810.828L443.641 809.852L442.664 808.875L441.688 807.898H439.734L438.758 806.922L437.781 805.945L436.805 804.969L435.828 803.992L434.852 803.016L433.875 802.039L432.898 801.062L431.922 800.086L430.945 799.109L429.969 798.133H428.016L427.039 797.156L426.062 796.18L425.086 795.203L424.109 794.227L423.133 793.25L422.156 792.273L421.18 791.297L420.203 790.32L419.227 789.344L418.25 788.367H416.297L415.32 787.391L414.344 786.414L413.367 785.438L412.391 784.461L411.414 783.484L410.438 782.508L409.461 781.531L408.484 780.555L407.508 779.578L406.531 778.602L405.555 777.625L404.578 776.648L403.602 775.672V773.719L404.578 772.742H406.531L407.508 771.766L408.484 770.789H410.438H412.391L413.367 769.812L414.344 768.836H416.297L417.273 767.859L418.25 766.883H420.203L421.18 765.906L422.156 764.93H424.109L425.086 763.953L426.062 762.977H428.016L428.992 762L429.969 761.023H431.922L432.898 760.047L433.875 759.07H435.828L436.805 758.094L437.781 757.117H439.734L440.711 756.141L441.688 755.164H443.641L444.617 754.188L445.594 753.211H447.547L448.523 752.234L449.5 751.258H451.453L452.43 750.281L453.406 749.305H455.359L456.336 748.328L457.312 747.352L458.289 746.375L459.266 745.398H461.219L462.195 744.422L463.172 743.445H465.125L466.102 742.469L467.078 741.492H469.031L470.008 740.516L470.984 739.539L471.961 738.562L472.938 737.586H474.891L475.867 736.609L476.844 735.633H478.797L479.773 734.656L480.75 733.68L481.727 732.703L482.703 731.727H484.656L485.633 730.75L486.609 729.773L487.586 728.797L488.562 727.82H490.516L491.492 726.844L492.469 725.867L493.445 724.891L494.422 723.914H496.375L497.352 722.938L498.328 721.961H500.281L501.258 720.984L502.234 720.008L503.211 719.031L504.188 718.055H506.141H508.094L509.07 719.031L510.047 720.008L511.023 720.984L512 721.961H513.953L514.93 722.938L515.906 723.914L516.883 724.891L517.859 725.867H519.812L520.789 726.844L521.766 727.82H523.719L524.695 728.797L525.672 729.773L526.648 730.75L527.625 731.727H529.578L530.555 732.703L531.531 733.68H533.484L534.461 734.656L535.438 735.633L536.414 736.609L537.391 737.586H539.344L540.32 738.562L541.297 739.539H543.25L544.227 740.516L545.203 741.492H547.156L548.133 742.469L549.109 743.445H551.062L552.039 744.422L553.016 745.398H554.969L555.945 746.375L556.922 747.352H558.875H560.828L561.805 748.328L562.781 749.305H564.734L565.711 750.281L566.688 751.258H568.641H570.594L571.57 752.234L572.547 753.211H574.5H576.453L577.43 754.188L578.406 755.164H580.359H582.312L583.289 756.141L584.266 757.117H586.219H588.172H590.125L591.102 758.094L592.078 759.07H594.031H595.984H597.938H599.891L600.867 760.047L601.844 761.023H603.797H605.75H607.703H609.656H611.609H613.562H615.516L616.492 762L617.469 762.977H619.422H621.375H623.328H625.281H627.234H629.188H631.141H633.094H635.047H637H638.953H640.906L641.883 763.953L640.906 764.93L639.93 765.906L638.953 766.883L637.977 767.859L637 768.836L636.023 769.812L635.047 770.789L634.07 771.766L633.094 772.742H631.141L630.164 773.719L629.188 774.695L628.211 775.672L627.234 776.648L626.258 777.625L625.281 778.602L624.305 779.578L623.328 780.555H621.375H619.422H617.469H615.516H613.562H611.609H609.656H607.703H605.75H603.797L602.82 781.531L601.844 782.508H599.891H597.938H595.984H594.031H592.078H590.125L589.148 783.484L588.172 784.461H586.219H584.266H582.312L581.336 785.438L580.359 786.414H578.406H576.453H574.5L573.523 787.391L572.547 788.367H570.594H568.641L567.664 789.344L566.688 790.32H564.734H562.781L561.805 791.297L560.828 792.273H558.875L557.898 793.25L556.922 794.227H554.969H553.016L552.039 795.203L551.062 796.18H549.109L548.133 797.156L547.156 798.133H545.203L544.227 799.109L543.25 800.086H541.297L540.32 801.062L539.344 802.039L538.367 803.016L537.391 803.992H535.438L534.461 804.969L533.484 805.945H531.531L530.555 806.922L529.578 807.898L528.602 808.875L527.625 809.852H525.672L524.695 810.828L523.719 811.805L522.742 812.781L521.766 813.758H519.812L518.836 814.734L517.859 815.711L516.883 816.688L515.906 817.664L514.93 818.641L513.953 819.617H512L511.023 820.594L510.047 821.57L509.07 822.547L508.094 823.523L507.117 824.5L506.141 825.477L505.164 826.453L504.188 827.43H502.234L501.258 828.406L500.281 829.383L499.305 830.359L498.328 831.336L497.352 832.312L496.375 833.289L495.398 834.266L494.422 835.242L493.445 836.219L492.469 837.195L491.492 838.172L490.516 839.148L489.539 840.125L488.562 841.102L487.586 842.078L486.609 843.055Z" stroke="var(--logo)" stroke-width="10"/>
<path d="M351.844 991.492H349.891H347.938H345.984H344.031H342.078H340.125H338.172H336.219H334.266H332.312H330.359H328.406H326.453H324.5H322.547H320.594H318.641H316.688H314.734H312.781H310.828H308.875L307.898 990.516L306.922 989.539H304.969H303.016H301.062H299.109L298.133 988.562L297.156 987.586H295.203H293.25H291.297L290.32 986.609L289.344 985.633H287.391L286.414 984.656L285.438 983.68H283.484H281.531L280.555 982.703L279.578 981.727H277.625L276.648 980.75L275.672 979.773H273.719L272.742 978.797L271.766 977.82L270.789 976.844L269.812 975.867H267.859L266.883 974.891L265.906 973.914L264.93 972.938L263.953 971.961H262L261.023 970.984L260.047 970.008L259.07 969.031L258.094 968.055L257.117 967.078L256.141 966.102H254.188L253.211 965.125L252.234 964.148L251.258 963.172L250.281 962.195L249.305 961.219L248.328 960.242L247.352 959.266L246.375 958.289L245.398 957.312V955.359L244.422 954.383L243.445 953.406L242.469 952.43L241.492 951.453L240.516 950.477L239.539 949.5L238.562 948.523L237.586 947.547V945.594L236.609 944.617L235.633 943.641L234.656 942.664L233.68 941.688V939.734L232.703 938.758L231.727 937.781V935.828L230.75 934.852L229.773 933.875V931.922L228.797 930.945L227.82 929.969V928.016L226.844 927.039L225.867 926.062V924.109L224.891 923.133L223.914 922.156V920.203V918.25L222.938 917.273L221.961 916.297V914.344V912.391V910.438L220.984 909.461L220.008 908.484V906.531V904.578V902.625L219.031 901.648L218.055 900.672V898.719V896.766V894.812V892.859V890.906V888.953V887V885.047V883.094V881.141V879.188V877.234V875.281V873.328V871.375V869.422V867.469L219.031 866.492L220.008 865.516V863.562V861.609V859.656L220.984 858.68L221.961 857.703V855.75V853.797V851.844L222.938 850.867L223.914 849.891V847.938V845.984L224.891 845.008L225.867 844.031V842.078L226.844 841.102L227.82 840.125V838.172L228.797 837.195L229.773 836.219V834.266L230.75 833.289L231.727 832.312L232.703 831.336L233.68 830.359V828.406L234.656 827.43L235.633 826.453L236.609 825.477L237.586 824.5V822.547L238.562 821.57L239.539 820.594L240.516 819.617L241.492 818.641L242.469 817.664L243.445 816.688V814.734L244.422 813.758L245.398 812.781L246.375 811.805L247.352 810.828L248.328 809.852L249.305 808.875L250.281 807.898L251.258 806.922L252.234 805.945L253.211 804.969L254.188 803.992L255.164 803.016L256.141 802.039H258.094L259.07 801.062L260.047 800.086L261.023 799.109L262 798.133L262.977 797.156L263.953 796.18L264.93 795.203L265.906 794.227H267.859L268.836 793.25L269.812 792.273L270.789 791.297L271.766 790.32H273.719L274.695 789.344L275.672 788.367H277.625L278.602 787.391L279.578 786.414L280.555 785.438L281.531 784.461H283.484L284.461 783.484L285.438 782.508H287.391L288.367 781.531L289.344 780.555H291.297L292.273 779.578L293.25 778.602H295.203H297.156L298.133 777.625L299.109 776.648H301.062L302.039 775.672L303.016 774.695H304.969H306.922L307.898 773.719L308.875 772.742H310.828H312.781L313.758 771.766L314.734 770.789H316.688H318.641L319.617 769.812L320.594 768.836H322.547H324.5L325.477 767.859L326.453 766.883H328.406H330.359H332.312L333.289 765.906L334.266 764.93H336.219H338.172L339.148 763.953L340.125 762.977H342.078H344.031L345.008 762L345.984 761.023H347.938H349.891L350.867 760.047L351.844 759.07H353.797H355.75H357.703L358.68 760.047L359.656 761.023L360.633 762L361.609 762.977L362.586 763.953L363.562 764.93L364.539 765.906L365.516 766.883L366.492 767.859L367.469 768.836L368.445 769.812L369.422 770.789H371.375L372.352 771.766L373.328 772.742L374.305 773.719L375.281 774.695L376.258 775.672L377.234 776.648L378.211 777.625L379.188 778.602L380.164 779.578L381.141 780.555L382.117 781.531V783.484L381.141 784.461H379.188L378.211 785.438L377.234 786.414H375.281L374.305 787.391L373.328 788.367H371.375H369.422L368.445 789.344L367.469 790.32H365.516H363.562L362.586 791.297L361.609 792.273H359.656H357.703L356.727 793.25L355.75 794.227H353.797H351.844L350.867 795.203L349.891 796.18H347.938H345.984H344.031L343.055 797.156L342.078 798.133H340.125H338.172L337.195 799.109L336.219 800.086H334.266H332.312H330.359L329.383 801.062L328.406 802.039H326.453L325.477 803.016L324.5 803.992H322.547H320.594L319.617 804.969L318.641 805.945H316.688H314.734L313.758 806.922L312.781 807.898H310.828H308.875L307.898 808.875L306.922 809.852H304.969L303.992 810.828L303.016 811.805H301.062L300.086 812.781L299.109 813.758H297.156L296.18 814.734L295.203 815.711H293.25L292.273 816.688L291.297 817.664H289.344L288.367 818.641L287.391 819.617L286.414 820.594L285.438 821.57L284.461 822.547L283.484 823.523H281.531L280.555 824.5L279.578 825.477L278.602 826.453L277.625 827.43L276.648 828.406L275.672 829.383L274.695 830.359L273.719 831.336L272.742 832.312L271.766 833.289L270.789 834.266L269.812 835.242L268.836 836.219L267.859 837.195L266.883 838.172V840.125L265.906 841.102L264.93 842.078L263.953 843.055L262.977 844.031V845.984L262 846.961L261.023 847.938L260.047 848.914L259.07 849.891V851.844L258.094 852.82L257.117 853.797V855.75V857.703L256.141 858.68L255.164 859.656V861.609L254.188 862.586L253.211 863.562V865.516V867.469V869.422V871.375L252.234 872.352L251.258 873.328V875.281V877.234V879.188V881.141V883.094V885.047V887V888.953V890.906V892.859V894.812L252.234 895.789L253.211 896.766V898.719V900.672V902.625V904.578L254.188 905.555L255.164 906.531V908.484V910.438L256.141 911.414L257.117 912.391V914.344L258.094 915.32L259.07 916.297V918.25L260.047 919.227L261.023 920.203V922.156L262 923.133L262.977 924.109L263.953 925.086L264.93 926.062V928.016L265.906 928.992L266.883 929.969L267.859 930.945L268.836 931.922L269.812 932.898L270.789 933.875L271.766 934.852L272.742 935.828L273.719 936.805L274.695 937.781L275.672 938.758L276.648 939.734L277.625 940.711L278.602 941.688L279.578 942.664L280.555 943.641L281.531 944.617L282.508 945.594L283.484 946.57H285.438L286.414 947.547L287.391 948.523L288.367 949.5L289.344 950.477H291.297L292.273 951.453L293.25 952.43H295.203L296.18 953.406L297.156 954.383H299.109H301.062L302.039 955.359L303.016 956.336H304.969H306.922H308.875L309.852 957.312L310.828 958.289H312.781H314.734H316.688H318.641H320.594H322.547L323.523 959.266L324.5 960.242H326.453H328.406H330.359H332.312H334.266L335.242 959.266L336.219 958.289H338.172H340.125H342.078H344.031H345.984H347.938H349.891H351.844L352.82 957.312L353.797 956.336H355.75H357.703H359.656H361.609L362.586 955.359L363.562 954.383H365.516H367.469H369.422L370.398 953.406L371.375 952.43H373.328L374.305 951.453L375.281 950.477H377.234H379.188L380.164 949.5L381.141 948.523H383.094L384.07 947.547L385.047 946.57H387H388.953L389.93 945.594L390.906 944.617H392.859L393.836 943.641L394.812 942.664H396.766L397.742 941.688L398.719 940.711H400.672L401.648 939.734L402.625 938.758L403.602 937.781L404.578 936.805H406.531L407.508 935.828L408.484 934.852H410.438L411.414 933.875L412.391 932.898L413.367 931.922L414.344 930.945H416.297L417.273 929.969L418.25 928.992L419.227 928.016L420.203 927.039H422.156L423.133 926.062L424.109 925.086L425.086 924.109L426.062 923.133L427.039 922.156L428.016 921.18H429.969L430.945 920.203L431.922 919.227L432.898 918.25L433.875 917.273L434.852 916.297L435.828 915.32H437.781L438.758 914.344L439.734 913.367L440.711 912.391L441.688 911.414L442.664 910.438L443.641 909.461L444.617 908.484L445.594 907.508L446.57 906.531L447.547 905.555L448.523 904.578L449.5 903.602L450.477 902.625L451.453 901.648H453.406L454.383 900.672L455.359 899.695L456.336 898.719L457.312 897.742L458.289 896.766L459.266 895.789L460.242 894.812L461.219 893.836L462.195 892.859L463.172 891.883L464.148 890.906L465.125 889.93L466.102 888.953L467.078 887.977L468.055 887L469.031 886.023L470.008 885.047L470.984 884.07L471.961 883.094L472.938 882.117L473.914 881.141L474.891 880.164L475.867 879.188L476.844 878.211L477.82 877.234L478.797 876.258L479.773 875.281L480.75 874.305L481.727 873.328L482.703 872.352L483.68 871.375L484.656 870.398L485.633 869.422L486.609 868.445L487.586 867.469L488.562 866.492L489.539 865.516L490.516 864.539L491.492 863.562L492.469 862.586L493.445 861.609L494.422 860.633L495.398 859.656L496.375 858.68L497.352 857.703L498.328 856.727L499.305 855.75L500.281 854.773L501.258 853.797L502.234 852.82L503.211 851.844L504.188 850.867L505.164 849.891L506.141 848.914L507.117 847.938L508.094 846.961L509.07 845.984L510.047 845.008H512L512.977 844.031L513.953 843.055L514.93 842.078L515.906 841.102L516.883 840.125L517.859 839.148L518.836 838.172L519.812 837.195L520.789 836.219L521.766 835.242H523.719L524.695 834.266L525.672 833.289L526.648 832.312L527.625 831.336L528.602 830.359L529.578 829.383H531.531L532.508 828.406L533.484 827.43L534.461 826.453L535.438 825.477H537.391L538.367 824.5L539.344 823.523L540.32 822.547L541.297 821.57H543.25L544.227 820.594L545.203 819.617H547.156L548.133 818.641L549.109 817.664L550.086 816.688L551.062 815.711H553.016L553.992 814.734L554.969 813.758H556.922L557.898 812.781L558.875 811.805H560.828H562.781L563.758 810.828L564.734 809.852H566.688L567.664 808.875L568.641 807.898H570.594H572.547L573.523 806.922L574.5 805.945H576.453H578.406L579.383 804.969L580.359 803.992H582.312H584.266L585.242 803.016L586.219 802.039H588.172H590.125H592.078H594.031L595.008 801.062L595.984 800.086H597.938H599.891H601.844H603.797H605.75H607.703H609.656H611.609H613.562H615.516H617.469H619.422H621.375H623.328H625.281H627.234H629.188H631.141H633.094H635.047H637L637.977 801.062L638.953 802.039H640.906H642.859H644.812L645.789 803.016L646.766 803.992H648.719H650.672L651.648 804.969L652.625 805.945H654.578H656.531L657.508 806.922L658.484 807.898H660.438L661.414 808.875L662.391 809.852H664.344L665.32 810.828L666.297 811.805H668.25L669.227 812.781L670.203 813.758L671.18 814.734L672.156 815.711H674.109L675.086 816.688L676.062 817.664L677.039 818.641L678.016 819.617H679.969L680.945 820.594L681.922 821.57L682.898 822.547L683.875 823.523L684.852 824.5L685.828 825.477L686.805 826.453V828.406L687.781 829.383L688.758 830.359V832.312V834.266V836.219V838.172V840.125L687.781 841.102L686.805 842.078V844.031L685.828 845.008L684.852 845.984L683.875 846.961L682.898 847.938L681.922 848.914L680.945 849.891L679.969 850.867H678.016H676.062H674.109L673.133 851.844L672.156 852.82L671.18 851.844L670.203 850.867H668.25H666.297L665.32 849.891L664.344 848.914H662.391L661.414 847.938L660.438 846.961L659.461 845.984L658.484 845.008L657.508 844.031L656.531 843.055H654.578L653.602 842.078L652.625 841.102H650.672L649.695 840.125L648.719 839.148H646.766L645.789 838.172L644.812 837.195H642.859H640.906L639.93 836.219L638.953 835.242H637H635.047H633.094L632.117 834.266L631.141 833.289H629.188H627.234H625.281H623.328H621.375H619.422H617.469H615.516H613.562H611.609H609.656H607.703H605.75H603.797H601.844H599.891H597.938H595.984L595.008 834.266L594.031 835.242H592.078H590.125H588.172L587.195 836.219L586.219 837.195H584.266H582.312L581.336 838.172L580.359 839.148H578.406L577.43 840.125L576.453 841.102H574.5H572.547L571.57 842.078L570.594 843.055H568.641L567.664 844.031L566.688 845.008L565.711 845.984L564.734 846.961H562.781L561.805 847.938L560.828 848.914H558.875L557.898 849.891L556.922 850.867L555.945 851.844L554.969 852.82H553.016L552.039 853.797L551.062 854.773L550.086 855.75L549.109 856.727H547.156L546.18 857.703L545.203 858.68L544.227 859.656L543.25 860.633L542.273 861.609L541.297 862.586H539.344L538.367 863.562L537.391 864.539L536.414 865.516L535.438 866.492L534.461 867.469L533.484 868.445L532.508 869.422L531.531 870.398L530.555 871.375L529.578 872.352L528.602 873.328L527.625 874.305L526.648 875.281L525.672 876.258L524.695 877.234L523.719 878.211L522.742 879.188L521.766 880.164H519.812L518.836 881.141L517.859 882.117L516.883 883.094L515.906 884.07L514.93 885.047L513.953 886.023L512.977 887L512 887.977L511.023 888.953L510.047 889.93L509.07 890.906L508.094 891.883L507.117 892.859L506.141 893.836L505.164 894.812L504.188 895.789L503.211 896.766L502.234 897.742L501.258 898.719L500.281 899.695L499.305 900.672L498.328 901.648L497.352 902.625L496.375 903.602L495.398 904.578L494.422 905.555L493.445 906.531L492.469 907.508L491.492 908.484L490.516 909.461L489.539 910.438L488.562 911.414L487.586 912.391L486.609 913.367L485.633 914.344L484.656 915.32L483.68 916.297L482.703 917.273L481.727 918.25L480.75 919.227L479.773 920.203L478.797 921.18L477.82 922.156L476.844 923.133L475.867 924.109L474.891 925.086L473.914 926.062L472.938 927.039L471.961 928.016L470.984 928.992L470.008 929.969L469.031 930.945L468.055 931.922L467.078 932.898L466.102 933.875L465.125 934.852L464.148 935.828L463.172 936.805H461.219L460.242 937.781L459.266 938.758L458.289 939.734L457.312 940.711L456.336 941.688L455.359 942.664L454.383 943.641L453.406 944.617L452.43 945.594L451.453 946.57H449.5L448.523 947.547L447.547 948.523L446.57 949.5L445.594 950.477H443.641L442.664 951.453L441.688 952.43L440.711 953.406L439.734 954.383L438.758 955.359L437.781 956.336H435.828L434.852 957.312L433.875 958.289L432.898 959.266L431.922 960.242H429.969L428.992 961.219L428.016 962.195H426.062L425.086 963.172L424.109 964.148L423.133 965.125L422.156 966.102H420.203L419.227 967.078L418.25 968.055H416.297L415.32 969.031L414.344 970.008H412.391L411.414 970.984L410.438 971.961H408.484L407.508 972.938L406.531 973.914H404.578L403.602 974.891L402.625 975.867H400.672L399.695 976.844L398.719 977.82H396.766L395.789 978.797L394.812 979.773H392.859H390.906L389.93 980.75L388.953 981.727H387H385.047L384.07 982.703L383.094 983.68H381.141H379.188L378.211 984.656L377.234 985.633H375.281H373.328L372.352 986.609L371.375 987.586H369.422H367.469H365.516L364.539 988.562L363.562 989.539H361.609H359.656H357.703H355.75H353.797L352.82 990.516L351.844 991.492Z" stroke="var(--logo)" stroke-width="10"/>
<path d="M449.5 880.164L448.523 879.188L447.547 878.211H445.594L444.617 877.234L443.641 876.258L442.664 875.281L441.688 874.305L440.711 873.328L439.734 872.352H437.781L436.805 871.375L435.828 870.398L434.852 869.422L433.875 868.445L432.898 867.469L431.922 866.492L430.945 865.516L429.969 864.539H428.016L427.039 863.562L426.062 862.586L425.086 861.609L424.109 860.633L423.133 859.656L422.156 858.68L421.18 857.703L420.203 856.727H418.25L417.273 855.75L416.297 854.773L415.32 853.797L414.344 852.82L413.367 851.844L412.391 850.867L411.414 849.891L410.438 848.914H408.484L407.508 847.938L406.531 846.961L405.555 845.984L404.578 845.008L403.602 844.031L402.625 843.055L401.648 842.078L400.672 841.102L399.695 840.125L398.719 839.148H396.766L395.789 838.172L394.812 837.195L393.836 836.219L392.859 835.242L391.883 834.266L390.906 833.289L389.93 832.312L388.953 831.336L387.977 830.359L387 829.383H385.047L384.07 828.406L383.094 827.43L382.117 826.453L381.141 825.477L380.164 824.5L379.188 823.523L378.211 822.547L377.234 821.57L376.258 820.594L375.281 819.617L374.305 818.641L373.328 817.664L372.352 816.688L371.375 815.711L370.398 814.734L369.422 813.758H367.469L366.492 812.781L365.516 811.805L364.539 810.828L365.516 809.852L366.492 808.875L367.469 807.898H369.422H371.375L372.352 806.922L373.328 805.945H375.281L376.258 804.969L377.234 803.992H379.188H381.141L382.117 803.016L383.094 802.039H385.047H387L387.977 801.062L388.953 800.086H390.906H392.859L393.836 799.109L394.812 798.133H396.766H398.719H400.672L401.648 799.109L402.625 800.086L403.602 801.062L404.578 802.039L405.555 803.016L406.531 803.992L407.508 804.969L408.484 805.945L409.461 806.922L410.438 807.898L411.414 808.875L412.391 809.852H414.344L415.32 810.828L416.297 811.805L417.273 812.781L418.25 813.758L419.227 814.734L420.203 815.711L421.18 816.688L422.156 817.664H424.109L425.086 818.641L426.062 819.617L427.039 820.594L428.016 821.57L428.992 822.547L429.969 823.523L430.945 824.5L431.922 825.477L432.898 826.453L433.875 827.43H435.828L436.805 828.406L437.781 829.383L438.758 830.359L439.734 831.336L440.711 832.312L441.688 833.289L442.664 834.266L443.641 835.242H445.594L446.57 836.219L447.547 837.195L448.523 838.172L449.5 839.148L450.477 840.125L451.453 841.102L452.43 842.078L453.406 843.055H455.359L456.336 844.031L457.312 845.008L458.289 845.984L459.266 846.961L460.242 847.938L461.219 848.914L462.195 849.891L463.172 850.867H465.125L466.102 851.844L467.078 852.82L468.055 853.797L469.031 854.773L470.008 855.75L470.984 856.727L471.961 857.703L470.984 858.68L470.008 859.656L469.031 860.633L468.055 861.609L467.078 862.586L466.102 863.562L465.125 864.539L464.148 865.516L463.172 866.492L462.195 867.469L461.219 868.445L460.242 869.422L459.266 870.398L458.289 871.375L457.312 872.352L456.336 873.328L455.359 874.305L454.383 875.281L453.406 876.258L452.43 877.234L451.453 878.211L450.477 879.188L449.5 880.164Z" stroke="var(--logo)" stroke-width="10"/>
</svg>
